<svg width="45" height="28" viewBox="0 0 45 28" fill="none" xmlns="http://www.w3.org/2000/svg">
<path d="M40.0571 11.9774C40.0423 10.6494 40.0374 9.31168 40.0325 7.97884H36.0586C36.0438 9.30676 36.034 10.6396 36.0241 11.9774C34.6864 11.9823 33.3585 11.9921 32.0305 12.0069V15.9857C33.3585 16.0005 34.6962 16.0103 36.0241 16.0251C36.0389 17.353 36.0389 18.6858 36.0487 20.0138H40.0276C40.0325 18.6858 40.0423 17.353 40.0522 16.0152C41.3899 16.0005 42.7179 15.9956 44.0458 15.9808V12.002C42.7228 11.9921 41.385 11.9921 40.0571 11.9774ZM13.9904 11.997C13.9855 13.5856 13.9904 15.1791 13.9953 16.7677C16.661 16.8563 19.3316 16.8169 21.9973 16.8563C20.8219 22.7729 12.7805 24.691 8.52626 20.8253C4.14903 17.4366 4.35559 10.0052 8.90497 6.85748C12.0871 4.31967 16.6069 4.94428 19.789 7.14274C21.0383 5.98695 22.2088 4.74755 23.3351 3.46881C20.6891 1.35889 17.443 -0.146094 13.9904 0.01129C6.78029 -0.229704 0.155418 6.08532 0.0373799 13.3004C-0.424935 19.1973 3.45064 24.9763 8.91972 27.0616C14.3691 29.1617 21.3579 27.7305 24.8401 22.8319C27.1369 19.7383 27.6336 15.7546 27.3631 12.0118C22.9023 11.9774 18.4464 11.9823 13.9904 11.997V11.997Z" fill="white"/>
</svg>
