<svg id="Layer_1" data-name="Layer 1" xmlns="http://www.w3.org/2000/svg" viewBox="0 0 512 512"><title>Block</title><path fill="#fff" d="M472.22,164.65A235.29,235.29,0,0,0,347.35,39.78a235.37,235.37,0,0,0-182.7,0A235.29,235.29,0,0,0,39.78,164.65a235.37,235.37,0,0,0,0,182.7A235.29,235.29,0,0,0,164.65,472.22a235.37,235.37,0,0,0,182.7,0A235.29,235.29,0,0,0,472.22,347.35a235.37,235.37,0,0,0,0-182.7ZM256,448C150.13,448,64,361.87,64,256a191.06,191.06,0,0,1,42.06-119.77L375.77,405.94A191.06,191.06,0,0,1,256,448Zm149.94-72.23L136.23,106.06A191.06,191.06,0,0,1,256,64c105.87,0,192,86.13,192,192A191.06,191.06,0,0,1,405.94,375.77Z"/></svg>