<svg id="Office" xmlns="http://www.w3.org/2000/svg" viewBox="0 0 32 32"><title>Office</title><path fill="#0755d1" d="M26,8H24V6a3,3,0,0,0-3-3H11A3,3,0,0,0,8,6V8H6a3,3,0,0,0-3,3V26a3,3,0,0,0,3,3H26a3,3,0,0,0,3-3V11A3,3,0,0,0,26,8ZM6,27a1,1,0,0,1-1-1V11a1,1,0,0,1,1-1H8V27Zm8,0V25h4v2Zm6,0V24a1,1,0,0,0-1-1H13a1,1,0,0,0-1,1v3H10V6a1,1,0,0,1,1-1H21a1,1,0,0,1,1,1V27Zm7-1a1,1,0,0,1-1,1H24V10h2a1,1,0,0,1,1,1Z"/><path fill="#0755d1" d="M14,7H13a1,1,0,0,0,0,2h1a1,1,0,0,0,0-2Z"/><path fill="#0755d1" d="M19,7H18a1,1,0,0,0,0,2h1a1,1,0,0,0,0-2Z"/><path fill="#0755d1" d="M14,11H13a1,1,0,0,0,0,2h1a1,1,0,0,0,0-2Z"/><path fill="#0755d1" d="M19,11H18a1,1,0,0,0,0,2h1a1,1,0,0,0,0-2Z"/><path fill="#0755d1" d="M14,15H13a1,1,0,0,0,0,2h1a1,1,0,0,0,0-2Z"/><path fill="#0755d1" d="M19,15H18a1,1,0,0,0,0,2h1a1,1,0,0,0,0-2Z"/><path fill="#0755d1" d="M14,19H13a1,1,0,0,0,0,2h1a1,1,0,0,0,0-2Z"/><path fill="#0755d1" d="M19,19H18a1,1,0,0,0,0,2h1a1,1,0,0,0,0-2Z"/></svg>