<?xml version="1.0" encoding="UTF-8"?>
<!DOCTYPE svg PUBLIC "-//W3C//DTD SVG 1.1//EN" "http://www.w3.org/Graphics/SVG/1.1/DTD/svg11.dtd">
<!-- Creator: CorelDRAW -->
<svg xmlns="http://www.w3.org/2000/svg" xml:space="preserve" width="7.11111in" height="7.11111in" version="1.1" style="shape-rendering:geometricPrecision; text-rendering:geometricPrecision; image-rendering:optimizeQuality; fill-rule:evenodd; clip-rule:evenodd"
viewBox="0 0 7111 7111"
 xmlns:xlink="http://www.w3.org/1999/xlink">
 <defs>
  <style type="text/css">
   <![CDATA[
    .fil0 {fill: #0755d1}
   ]]>
  </style>
  <linearGradient id="id0" gradientUnits="userSpaceOnUse" x1="166.165" y1="3555.56" x2="6944.94" y2="3555.56">
   <stop offset="0" style="stop-opacity:1; stop-color:#336666"/>
   <stop offset="1" style="stop-opacity:1; stop-color:#003333"/>
  </linearGradient>
 </defs>
 <g id="Layer_x0020_1">
  <metadata id="CorelCorpID_0Corel-Layer"/>
  <path class="fil0" d="M1141 5866l0 -745c0,-431 255,-827 649,-1010 42,-19 127,-41 231,-64l702 621 -233 182c-18,15 -24,41 -12,61l536 955 -919 0 0 -552c0,-27 -21,-48 -48,-48 -26,0 -48,21 -48,48l0 552 -858 0zm314 -3802l-288 0 0 289c0,52 -43,94 -95,94 -52,0 -94,-42 -94,-94l0 -289 -289 0c-52,0 -95,-42 -95,-94 0,-53 43,-95 95,-95l289 0 0 -289c0,-52 42,-94 94,-94 52,0 95,42 95,94l0 289 288 0c53,0 95,42 95,95 0,52 -42,94 -95,94zm4816 1550l-122 0 0 122c0,52 -42,95 -94,95 -52,0 -95,-43 -95,-95l0 -122 -122 0c-52,0 -94,-42 -94,-95 0,-52 42,-94 94,-94l122 0 0 -122c0,-53 43,-95 95,-95 52,0 94,42 94,95l0 122 122 0c53,0 95,42 95,94 0,53 -42,95 -95,95zm-4499 -2816l-122 0 0 122c0,52 -42,94 -95,94 -52,0 -94,-42 -94,-94l0 -122 -122 0c-52,0 -95,-43 -95,-95 0,-52 43,-95 95,-95l122 0 0 -122c0,-52 42,-94 94,-94 53,0 95,42 95,94l0 122 122 0c52,0 95,43 95,95 0,52 -43,95 -95,95zm-833 3622c-36,0 -69,-21 -85,-53l-206 -428 -428 -207c-33,-15 -54,-48 -54,-85 0,-36 21,-69 54,-85l428 -206 206 -428c16,-33 49,-54 85,-54 37,0 70,21 86,54l206 428 428 206c33,16 53,49 53,85 0,37 -21,70 -53,85l-428 207 -206 428c-16,32 -49,53 -86,53zm5233 -1983c-36,0 -70,-21 -85,-53l-207 -428 -428 -207c-32,-15 -53,-48 -53,-85 0,-36 21,-69 53,-85l428 -206 207 -428c15,-33 49,-54 85,-54 36,0 69,21 85,54l206 428 428 206c33,16 54,49 54,85 0,37 -21,70 -54,85l-428 207 -206 428c-16,32 -49,53 -85,53zm412 4671l-6057 0c-52,0 -95,-42 -95,-95l0 -479c0,-53 43,-95 95,-95l6057 0c52,0 95,42 95,95l0 479c0,53 -43,95 -95,95zm-5822 -762l0 -292c0,-53 43,-95 95,-95l5397 0c52,0 95,42 95,95l0 292 -5587 0zm3464 -2501c28,-12 58,-17 88,-15 7,1 13,1 20,1l-114 -307c-190,161 -417,249 -668,249 -259,0 -482,-93 -662,-245l-112 304c6,-1 12,-1 19,-2 30,-2 60,3 88,15l671 292 670 -292zm-674 -165c-445,0 -823,-314 -993,-821 -93,-85 -421,-436 -271,-1027 -48,-159 -248,-937 265,-1377 0,0 1,-1 1,-1 369,-303 692,-451 987,-451 255,0 447,106 616,200 75,42 146,81 216,107 244,89 421,302 497,598 71,273 51,600 -54,925 149,591 -178,941 -271,1026 -170,507 -549,821 -993,821zm-1074 -1824c-156,568 218,872 222,875 14,11 25,27 31,45 140,441 454,714 821,714 366,0 681,-273 821,-714 6,-18 16,-34 31,-45 15,-13 377,-312 222,-876l-1 -2c-48,-184 -172,-252 -455,-252 -79,0 -162,5 -250,10 -92,6 -187,11 -282,11 0,0 -1,0 -1,0 -204,0 -459,-23 -659,-191 -207,119 -470,309 -500,423l0 2zm-339 2167c250,-48 551,-92 664,-100 15,-1 30,2 44,8l258 112 219 714 -162 1109 -38 0 -542 -966 246 -193c11,-8 18,-22 18,-36 1,-14 -6,-28 -16,-38l-691 -610zm1649 735l256 -732 220 -95c14,-6 29,-9 44,-8 113,8 417,52 667,100l-694 610c-10,10 -16,24 -16,38 0,14 7,28 18,37l246 192 -542 966 -37 0 -162 -1108zm65 1108l-594 0 155 -1064 283 0 156 1064zm-633 -1773l336 146 368 -160 -221 627 -297 0 -186 -613zm1873 -45c103,22 186,44 228,63 394,183 649,579 649,1010l0 745 -858 0 0 -552c0,-27 -22,-48 -48,-48 -27,0 -48,21 -48,48l0 552 -919 0 536 -954c12,-21 6,-47 -12,-62l-233 -182 705 -620z"/>
 </g>
</svg>
