<svg width="107" height="16" viewBox="0 0 107 16" fill="none" xmlns="http://www.w3.org/2000/svg">
<path d="M106.207 8.70711C106.598 8.31658 106.598 7.68342 106.207 7.29289L99.8431 0.928932C99.4526 0.538408 98.8195 0.538408 98.4289 0.928932C98.0384 1.31946 98.0384 1.95262 98.4289 2.34315L104.086 8L98.4289 13.6569C98.0384 14.0474 98.0384 14.6805 98.4289 15.0711C98.8195 15.4616 99.4526 15.4616 99.8431 15.0711L106.207 8.70711ZM0 9H2.02885V7H0V9ZM6.08654 9H10.1442V7H6.08654V9ZM14.2019 9H18.2596V7H14.2019V9ZM22.3173 9H26.375V7H22.3173V9ZM30.4327 9H34.4904V7H30.4327V9ZM38.5481 9H42.6058V7H38.5481V9ZM46.6635 9H50.7212V7H46.6635V9ZM54.7789 9H58.8365V7H54.7789V9ZM62.8942 9H66.9519V7H62.8942V9ZM71.0096 9H75.0673V7H71.0096V9ZM79.125 9H83.1827V7H79.125V9ZM87.2404 9H91.2981V7H87.2404V9ZM95.3558 9H99.4135V7H95.3558V9ZM103.471 9H105.5V7H103.471V9Z" fill="#CCE0FF"/>
</svg>
