<svg width="64" height="64" viewBox="0 0 64 64" fill="none" xmlns="http://www.w3.org/2000/svg">
<path d="M21 31C21.7956 31 22.5587 31.3161 23.1213 31.8787C23.6839 32.4413 24 33.2044 24 34V35H22.83C22.5661 34.9999 22.3049 34.9477 22.0612 34.8465C21.8176 34.7452 21.5963 34.5969 21.41 34.41L21 34L20.59 34.41C20.4037 34.5969 20.1824 34.7452 19.9388 34.8465C19.6951 34.9477 19.4339 34.9999 19.17 35H18V34C18 33.2044 18.3161 32.4413 18.8787 31.8787C19.4413 31.3161 20.2044 31 21 31Z" fill="#0755d1"/>
<path d="M21 22C21.598 21.9994 22.1821 21.8201 22.6775 21.4851C23.1728 21.1501 23.5568 20.6747 23.78 20.12L23.92 19.94C24.1399 20.0969 24.3472 20.2707 24.54 20.46C25.4751 21.4009 26 22.6735 26 24V25H16V24C15.9998 23.2068 16.1883 22.4249 16.55 21.719C16.9117 21.013 17.4361 20.4032 18.08 19.94L18.22 20.12C18.4432 20.6747 18.8272 21.1501 19.3225 21.4851C19.8179 21.8201 20.402 21.9994 21 22Z" fill="#0755d1"/>
<path d="M24 14V15H22.83C22.5661 14.9999 22.3049 14.9477 22.0612 14.8465C21.8176 14.7452 21.5963 14.5969 21.41 14.41L21 14L20.59 14.41C20.4037 14.5969 20.1824 14.7452 19.9388 14.8465C19.6951 14.9477 19.4339 14.9999 19.17 15H18V14C18 13.2044 18.3161 12.4413 18.8787 11.8787C19.4413 11.3161 20.2044 11 21 11C21.7956 11 22.5587 11.3161 23.1213 11.8787C23.6839 12.4413 24 13.2044 24 14V14Z" fill="#0755d1"/>
<path d="M48 61H8C6.93913 61 5.92172 60.5786 5.17157 59.8284C4.42143 59.0783 4 58.0609 4 57V53H44V57C43.9993 57.5255 44.1024 58.0459 44.3031 58.5315C44.5039 59.0171 44.7985 59.4583 45.1701 59.8299C45.5417 60.2015 45.9829 60.4961 46.4685 60.6969C46.9541 60.8976 47.4745 61.0007 48 61V61Z" fill="#0755d1"/>
<path d="M21 42C21.598 41.9994 22.1821 41.8201 22.6775 41.4851C23.1728 41.1501 23.5568 40.6747 23.78 40.12L23.92 39.94C24.1399 40.0969 24.3472 40.2707 24.54 40.46C25.4751 41.4009 26 42.6735 26 44V45H16V44C15.9998 43.2068 16.1883 42.4249 16.55 41.719C16.9117 41.013 17.4361 40.4032 18.08 39.94L18.22 40.12C18.4432 40.6747 18.8272 41.1501 19.3225 41.4851C19.8179 41.8201 20.402 41.9994 21 42Z" fill="#0755d1"/>
<path d="M60 7V13H52V7C52 5.93913 52.4214 4.92172 53.1716 4.17157C53.9217 3.42143 54.9391 3 56 3C57.0609 3 58.0783 3.42143 58.8284 4.17157C59.5786 4.92172 60 5.93913 60 7V7Z" fill="#0755d1"/>
<path stroke="#0755d1" stroke-width="2" d="M56 2H14C12.6739 2 11.4021 2.52678 10.4645 3.46447C9.52678 4.40215 9 5.67392 9 7V52H4C3.73478 52 3.48043 52.1054 3.29289 52.2929C3.10536 52.4804 3 52.7348 3 53V57C3 58.3261 3.52678 59.5979 4.46447 60.5355C5.40215 61.4732 6.67392 62 8 62H48C49.3261 62 50.5979 61.4732 51.5355 60.5355C52.4732 59.5979 53 58.3261 53 57V14H60C60.2652 14 60.5196 13.8946 60.7071 13.7071C60.8946 13.5196 61 13.2652 61 13V7C61 5.67392 60.4732 4.40215 59.5355 3.46447C58.5979 2.52678 57.3261 2 56 2V2ZM8 60C7.20508 59.9976 6.4434 59.6808 5.8813 59.1187C5.31921 58.5566 5.00237 57.7949 5 57V54H43V57C42.9989 58.082 43.3499 59.135 44 60H8ZM51 7V57C51 57.7956 50.6839 58.5587 50.1213 59.1213C49.5587 59.6839 48.7956 60 48 60C47.2044 60 46.4413 59.6839 45.8787 59.1213C45.3161 58.5587 45 57.7956 45 57V53C45 52.7348 44.8946 52.4804 44.7071 52.2929C44.5196 52.1054 44.2652 52 44 52H11V7C11.0024 6.20508 11.3192 5.4434 11.8813 4.8813C12.4434 4.31921 13.2051 4.00237 14 4H52.03C51.3652 4.85902 51.003 5.91376 51 7V7ZM59 12H53V7C53 6.20435 53.3161 5.44129 53.8787 4.87868C54.4413 4.31607 55.2044 4 56 4C56.7956 4 57.5587 4.31607 58.1213 4.87868C58.6839 5.44129 59 6.20435 59 7V12Z" fill="#0755d1"/>
<path d="M23.893 18.747C24.6018 18.0079 24.9983 17.024 25 16V14C25 12.9391 24.5786 11.9217 23.8284 11.1716C23.0783 10.4214 22.0609 10 21 10C19.9391 10 18.9217 10.4214 18.1716 11.1716C17.4214 11.9217 17 12.9391 17 14V16C17.0017 17.024 17.3982 18.0079 18.107 18.747C17.1666 19.2646 16.3822 20.025 15.8357 20.9489C15.2892 21.8729 15.0006 22.9265 15 24V25C15 25.2652 15.1054 25.5196 15.2929 25.7071C15.4804 25.8946 15.7348 26 16 26H26C26.2652 26 26.5196 25.8946 26.7071 25.7071C26.8946 25.5196 27 25.2652 27 25V24C26.9994 22.9265 26.7108 21.8729 26.1643 20.9489C25.6178 20.025 24.8334 19.2646 23.893 18.747ZM21 20C21.5181 20.0001 22.0312 20.102 22.51 20.3C22.3241 20.5191 22.0928 20.6952 21.832 20.816C21.5713 20.9367 21.2874 20.9993 21 20.9993C20.7126 20.9993 20.4287 20.9367 20.168 20.816C19.9072 20.6952 19.6759 20.5191 19.49 20.3C19.9688 20.102 20.4819 20.0001 21 20ZM21 12C21.5304 12 22.0391 12.2107 22.4142 12.5858C22.7893 12.9609 23 13.4696 23 14H22.828C22.563 13.999 22.309 13.8937 22.121 13.707L21.707 13.293C21.5195 13.1055 21.2652 13.0002 21 13.0002C20.7348 13.0002 20.4805 13.1055 20.293 13.293L19.879 13.707C19.691 13.8937 19.437 13.999 19.172 14H19C19 13.4696 19.2107 12.9609 19.5858 12.5858C19.9609 12.2107 20.4696 12 21 12V12ZM19 16H19.172C19.8335 16.0021 20.4767 15.7836 21 15.379C21.5233 15.7836 22.1665 16.0021 22.828 16H23C23 16.5304 22.7893 17.0391 22.4142 17.4142C22.0391 17.7893 21.5304 18 21 18C20.4696 18 19.9609 17.7893 19.5858 17.4142C19.2107 17.0391 19 16.5304 19 16V16ZM17 24C17.0041 23.0946 17.3182 22.218 17.89 21.516C18.265 21.9796 18.7388 22.3535 19.2769 22.6103C19.815 22.8672 20.4037 23.0005 21 23.0005C21.5963 23.0005 22.185 22.8672 22.7231 22.6103C23.2612 22.3535 23.735 21.9796 24.11 21.516C24.6818 22.218 24.9959 23.0946 25 24H17Z" fill="#0755d1"/>
<path d="M23.893 38.747C24.6018 38.0079 24.9983 37.024 25 36V34C25 32.9391 24.5786 31.9217 23.8284 31.1716C23.0783 30.4214 22.0609 30 21 30C19.9391 30 18.9217 30.4214 18.1716 31.1716C17.4214 31.9217 17 32.9391 17 34V36C17.0017 37.024 17.3982 38.0079 18.107 38.747C17.1666 39.2646 16.3822 40.025 15.8357 40.9489C15.2892 41.8729 15.0006 42.9265 15 44V45C15 45.2652 15.1054 45.5196 15.2929 45.7071C15.4804 45.8946 15.7348 46 16 46H26C26.2652 46 26.5196 45.8946 26.7071 45.7071C26.8946 45.5196 27 45.2652 27 45V44C26.9994 42.9265 26.7108 41.8729 26.1643 40.9489C25.6178 40.025 24.8334 39.2646 23.893 38.747ZM21 40C21.5181 40.0001 22.0312 40.102 22.51 40.3C22.3241 40.5191 22.0928 40.6952 21.832 40.816C21.5713 40.9367 21.2874 40.9993 21 40.9993C20.7126 40.9993 20.4287 40.9367 20.168 40.816C19.9072 40.6952 19.6759 40.5191 19.49 40.3C19.9688 40.102 20.4819 40.0001 21 40ZM21 32C21.5304 32 22.0391 32.2107 22.4142 32.5858C22.7893 32.9609 23 33.4696 23 34H22.828C22.563 33.999 22.309 33.8937 22.121 33.707L21.707 33.293C21.5195 33.1055 21.2652 33.0002 21 33.0002C20.7348 33.0002 20.4805 33.1055 20.293 33.293L19.879 33.707C19.691 33.8937 19.437 33.999 19.172 34H19C19 33.4696 19.2107 32.9609 19.5858 32.5858C19.9609 32.2107 20.4696 32 21 32V32ZM19 36H19.172C19.8335 36.0021 20.4767 35.7836 21 35.379C21.5233 35.7836 22.1665 36.0021 22.828 36H23C23 36.5304 22.7893 37.0391 22.4142 37.4142C22.0391 37.7893 21.5304 38 21 38C20.4696 38 19.9609 37.7893 19.5858 37.4142C19.2107 37.0391 19 36.5304 19 36ZM17 44C17.0041 43.0946 17.3182 42.2179 17.89 41.516C18.265 41.9796 18.7388 42.3535 19.2769 42.6103C19.815 42.8672 20.4037 43.0005 21 43.0005C21.5963 43.0005 22.185 42.8672 22.7231 42.6103C23.2612 42.3535 23.735 41.9796 24.11 41.516C24.6818 42.2179 24.9959 43.0946 25 44H17Z" fill="#0755d1"/>
<path d="M47 24H33V26H47V24Z" fill="#0755d1"/>
<path d="M47 20H33V22H47V20Z" fill="#0755d1"/>
<path d="M47 16H33V18H47V16Z" fill="#0755d1"/>
<path d="M35 12H33V14H35V12Z" fill="#0755d1"/>
<path d="M47 12H37V14H47V12Z" fill="#0755d1"/>
<path d="M47 44H33V46H47V44Z" fill="#0755d1"/>
<path d="M47 40H33V42H47V40Z" fill="#0755d1"/>
<path d="M47 36H33V38H47V36Z" fill="#0755d1"/>
<path d="M35 32H33V34H35V32Z" fill="#0755d1"/>
<path d="M47 32H37V34H47V32Z" fill="#0755d1"/>
</svg>
