<svg xmlns="http://www.w3.org/2000/svg" viewBox="0 0 223.63 223.63"><title>Stay_organize</title><g id="Stay_organize"><path fill="#0755d1" d="M215.26,100.07l-12-2.61A5.85,5.85,0,0,1,198.84,93a88.24,88.24,0,0,0-9.45-25,5.84,5.84,0,0,1,.16-6l7.29-11.38a5.84,5.84,0,0,0-.8-7.29L184,31.15a5.86,5.86,0,0,0-7.29-.79L166.5,36.87a5.85,5.85,0,0,1-6.34,0,88.07,88.07,0,0,0-24.51-11,5.83,5.83,0,0,1-4.15-4.38l-2.88-13a5.79,5.79,0,0,0-5.71-4.54h-17.1a5.79,5.79,0,0,0-5.71,4.54L97.49,20.26A5.84,5.84,0,0,1,93,24.7a88.21,88.21,0,0,0-24.94,9.56,5.83,5.83,0,0,1-6-.15L50.56,26.75a5.85,5.85,0,0,0-7.29.79L31.18,39.63a5.86,5.86,0,0,0-.79,7.29l6.72,10.5a5.84,5.84,0,0,1,0,6.31A88.11,88.11,0,0,0,26.39,87.82,5.83,5.83,0,0,1,22,92L8.42,95a5.82,5.82,0,0,0-4.55,5.72v17.09a5.82,5.82,0,0,0,4.55,5.72l12.46,2.73a5.84,5.84,0,0,1,4.44,4.46A88.17,88.17,0,0,0,34.63,155a5.81,5.81,0,0,1-.16,6l-7.69,12a5.83,5.83,0,0,0,.79,7.29l12.08,12.09a5.87,5.87,0,0,0,7.3.79l10.9-7a5.85,5.85,0,0,1,6.32,0A88.32,88.32,0,0,0,87.8,196.86a5.83,5.83,0,0,1,4.12,4.37l3.07,14a5.87,5.87,0,0,0,5.71,4.63h17.1a5.87,5.87,0,0,0,5.71-4.63l2.75-12.56a5.87,5.87,0,0,1,4.5-4.47,88.23,88.23,0,0,0,24.4-9.19,5.83,5.83,0,0,1,6,.17l11.9,7.62a5.85,5.85,0,0,0,7.29-.79l12.09-12.09a5.84,5.84,0,0,0,.79-7.29l-6.77-10.57a5.85,5.85,0,0,1,0-6.35,88.15,88.15,0,0,0,10.92-24.06,5.84,5.84,0,0,1,4.36-4.11l13.49-3a5.87,5.87,0,0,0,4.61-5.72V105.79A5.87,5.87,0,0,0,215.26,100.07Zm-104,79.18A66.22,66.22,0,1,1,177.43,113,66.21,66.21,0,0,1,111.22,179.25Z"/><path fill="#0755d1" d="M85.58,103.73A10.45,10.45,0,1,0,75.13,93.28,10.44,10.44,0,0,0,85.58,103.73Z"/><path fill="#0755d1" d="M138.68,103.73a10.45,10.45,0,1,0-10.45-10.45A10.45,10.45,0,0,0,138.68,103.73Z"/><path fill="#0755d1" d="M112.09,110.46A10.45,10.45,0,1,0,101.64,100,10.44,10.44,0,0,0,112.09,110.46Z"/><path fill="#0755d1" d="M111.87,114.6a20,20,0,0,0-20,20.22V139c0,.81.55,1.9,1.36,1.9h37.52c.8,0,1.12-1.09,1.12-1.9v-4.15A20,20,0,0,0,111.87,114.6Z"/><path fill="#0755d1" d="M98.86,113a20.63,20.63,0,0,0-13.57-5.13,20.36,20.36,0,0,0-20.42,20.18v4.15a2,2,0,0,0,1.85,1.63H86.79A26,26,0,0,1,98.86,113Z"/><path fill="#0755d1" d="M138.59,107.87a20.16,20.16,0,0,0-13.42,5.2,25.91,25.91,0,0,1,12,20.8h20.15a1.68,1.68,0,0,0,1.54-1.63v-4.15a20.28,20.28,0,0,0-20.28-20.22Z"/></g></svg>