<svg id="Layer_1" data-name="Layer 1" xmlns="http://www.w3.org/2000/svg" viewBox="0 0 512 512"><title>Customer Service Male</title><path d="M373.167,155.429h5.754a33.524,33.524,0,0,1,33.524,33.524V211.3a33.524,33.524,0,0,1-33.524,33.524h-5.754Z"/><path fill="#218392" d="M135.111,155.429h-5.754a33.524,33.524,0,0,0-33.524,33.524V211.3a33.524,33.524,0,0,0,33.524,33.524h5.754Z"/><path fill="#218392" d="M367.923,134.094h11a54.766,54.766,0,0,1,7.638.6A99.48,99.48,0,0,0,370.7,62.719c-17.807-26.3-45.833-41.385-76.891-41.385H185.26A10.664,10.664,0,0,0,174.917,29.4a141.36,141.36,0,0,0-2.9,16.922,68.594,68.594,0,0,0-45.349,34.411c-8.857,16.281-10.743,35.188-5.809,54.087a54.741,54.741,0,0,1,8.5-.728h14.69A69.007,69.007,0,0,1,203.2,100.573H308.8A69.028,69.028,0,0,1,367.923,134.094Z"/><path fill="#218392" d="M314.934,288a22.288,22.288,0,0,1-20.077,12.7H273.016a22.349,22.349,0,0,1-22.349-22.349h0A22.349,22.349,0,0,1,273.016,256h21.841a22.269,22.269,0,0,1,18.974,10.667h37.081a100.17,100.17,0,0,0,5.66-33.016V169.676A47.772,47.772,0,0,0,308.8,121.9H203.2a47.772,47.772,0,0,0-47.772,47.771v63.975A100.518,100.518,0,0,0,340.539,288Z"/><path fill="#218392" d="M373.167,155.429h5.754a33.524,33.524,0,0,1,33.524,33.524V211.3a33.524,33.524,0,0,1-33.524,33.524h-5.754Z"/><path fill="#218392" d="M135.111,155.429h-5.754a33.524,33.524,0,0,0-33.524,33.524V211.3a33.524,33.524,0,0,0,33.524,33.524h5.754Z"/><path fill="#218392" d="M245.333,428l-39.865-40.284a55,55,0,0,1-16.01-38.937v-2.115H150.5A117.426,117.426,0,0,0,39.682,425.453l-12.828,36.87a21.334,21.334,0,0,0,20.151,28.344H245.333Z"/><path fill="#218392" d="M485.146,462.323l-12.828-36.87A117.426,117.426,0,0,0,361.5,346.667H322.542v2.115a55,55,0,0,1-16.021,38.943L266.667,428v62.665H464.995a21.334,21.334,0,0,0,20.151-28.344Z"/><path fill="#218392" d="M256,355.557a121.2,121.2,0,0,1-45.208-8.728v1.952a33.814,33.814,0,0,0,9.839,23.932L256,408.453l35.365-35.74a33.8,33.8,0,0,0,9.844-23.932V346.83A121.213,121.213,0,0,1,256,355.557Z"/></svg>