
<svg xmlns="http://www.w3.org/2000/svg" xml:space="preserve" width="1.70666in" height="1.70666in" version="1.1" style="shape-rendering:geometricPrecision; text-rendering:geometricPrecision; image-rendering:optimizeQuality; fill-rule:evenodd; clip-rule:evenodd"
viewBox="0 0 1706.66 1706.66"
 xmlns:xlink="http://www.w3.org/1999/xlink"
 xmlns:xodm="http://www.corel.com/coreldraw/odm/2003">
 <defs>
  <style type="text/css">
   <![CDATA[
    .fil0 {fill: #0755d1}
    .strock0 {fill: #0755d1}
   ]]>
  </style>
 </defs>
 <g id="Layer_x0020_1">
  <metadata id="CorelCorpID_0Corel-Layer"/>
  <path class="fil0" d="M902.74 1706.67l-565.29 0c-55.43,0 -100.54,-45.11 -100.54,-100.54l0 -1191.09c0,-55.43 45.11,-100.54 100.54,-100.54l565.29 0c55.43,0 100.54,45.11 100.54,100.54l0 1191.09c0,55.43 -45.11,100.54 -100.54,100.54zm-495.14 -340.41c-11,0 -19.8,-8.94 -19.8,-19.8l0 -508.07c0,-26.11 39.61,-26.11 39.61,0l0 508.07c0,11 -8.94,19.8 -19.81,19.8zm137.96 0c-11,0 -19.81,-8.94 -19.81,-19.8l0 -508.07c0,-26.11 39.61,-26.11 39.61,0l0 508.07c0,11 -8.94,19.8 -19.8,19.8zm137.95 0c-11,0 -19.81,-8.94 -19.81,-19.8l0 -508.07c0,-26.11 39.61,-26.11 39.61,0l0 508.07c0,11 -8.94,19.8 -19.81,19.8zm137.95 0c-11,0 -19.8,-8.94 -19.8,-19.8l0 -508.07c0,-26.11 39.61,-26.11 39.61,0l0 508.07c0,11 -8.94,19.8 -19.81,19.8zm-201.36 -662.94c-88.92,0 -161.33,-72.42 -161.33,-161.33 0,-88.92 72.41,-161.33 161.33,-161.33 88.91,0 161.33,72.42 161.33,161.33 0,88.97 -72.35,161.33 -161.33,161.33z"/>
  <path stroke="strock0" stroke-width="4" class="fil0" d="M760.55 281.48l253.74 -72.48c53.26,-15.16 109.15,15.81 124.33,69.19l327.21 1145.29c15.28,53.17 -15.57,109.16 -69.05,124.33 -33.07,9.38 -261.19,75.55 -369.16,105.65 5.59,-14.72 8.67,-30.67 8.67,-47.33l0 -1191.09c0,-73.65 -59.9,-133.55 -133.55,-133.55l-142.2 0z"/>
  <path class="fil0" d="M620.1 670.31c-70.7,0 -128.32,-57.63 -128.32,-128.32 0,-70.7 57.63,-128.33 128.32,-128.33 70.7,0 128.32,57.63 128.32,128.33 0,70.69 -57.49,128.32 -128.32,128.32z"/>
  <path class="fil0" d="M620.1 469.77c-12.33,0 -23.85,-6.26 -30.53,-16.66l-235.6 -366.82c-25.88,-40.31 35.36,-79.52 61.19,-39.3l235.61 366.82c15.52,24.16 -2.02,55.96 -30.67,55.96z"/>
  <path class="fil0" d="M678.83 361.53c-27.67,0 -45.18,-30.12 -31.56,-54.2l163.4 -288.83c23.52,-41.57 86.76,-5.79 63.24,35.78l-163.39 288.83c-6.47,11.44 -18.6,18.42 -31.69,18.42z"/>
 </g>
</svg>
