<svg id="Repair_Service" data-name="Repair Service" xmlns="http://www.w3.org/2000/svg" viewBox="0 0 64 64"><path fill="#218392" d="M45.77,14.37a.967.967,0,0,1,.29.7L46,31.34a6.915,6.915,0,0,1,1.51,4.43,2.906,2.906,0,0,0,.15.92l.33-.34.09-24.26-8-.04-.01,2,4.99.02A1,1,0,0,1,45.77,14.37Z"/><path fill="#218392" d="M38.08,12.05a3.017,3.017,0,0,0-2.99-3.02L32,9.02a1,1,0,0,1-.99-.84A4.973,4.973,0,0,0,26.11,4h-.02a4.973,4.973,0,0,0-4.92,4.15,1.008,1.008,0,0,1-.99.83l-3.09-.01h-.01a2.994,2.994,0,0,0-3,2.99l-.02,3,24,.09ZM26,11a2,2,0,1,1,2-2A2.006,2.006,0,0,1,26,11Z"/><path fill="#218392" d="M42.17,36.71a.989.989,0,0,1-.63.63l-2.12.71a1.007,1.007,0,0,1-1.03-.24l-2.82-2.83a4.97,4.97,0,0,0,4.93,5.7h.02a5.056,5.056,0,0,1,3.33,1.22l2.03-2.02a1.008,1.008,0,0,1,0-1.42l.26-.26a4.889,4.889,0,0,1-.63-2.45,4.919,4.919,0,0,0-1.46-3.6,5,5,0,0,0-4.24-1.41l2.83,2.82a1.007,1.007,0,0,1,.24,1.03Z"/><path fill="#218392" d="M8.06,15.93l-.14,40,36,.14.03-4.49-4.56,3.25a.981.981,0,0,1-.58.19,1.007,1.007,0,0,1-.71-.29L35.27,51.9a1,1,0,0,1-.1-1.29L36.32,49H23V47H37.74l.96-1.34a1.009,1.009,0,0,1,.81-.42h1l1.93-1.92a3.069,3.069,0,0,0-1.95-.64,6.971,6.971,0,0,1-5.66-2.89A6.87,6.87,0,0,1,33.92,38H23V36H33.54a6.978,6.978,0,0,1,.66-3.33,1,1,0,0,1,1.61-.28l3.56,3.57,1.06-.36.36-1.06-3.57-3.55a1,1,0,0,1,.28-1.61,7,7,0,0,1,6.51.26l.05-13.57-4-.02a1,1,0,0,1-1,1l-26-.1a1.033,1.033,0,0,1-.71-.29,1.007,1.007,0,0,1-.29-.71ZM23,24H40v2H23ZM15.759,51.651a1,1,0,0,1-.72.348H15a1,1,0,0,1-.707-.293l-3-3,1.414-1.414,2.236,2.236,5.3-6.18,1.518,1.3Zm0-11a1,1,0,0,1-.72.348H15a1,1,0,0,1-.707-.293l-3-3,1.414-1.414,2.236,2.236,5.3-6.18,1.518,1.3ZM12.707,24.293l2.236,2.236,5.3-6.18,1.518,1.3-6,7a1,1,0,0,1-.72.348H15a1,1,0,0,1-.707-.293l-3-3Z"/><path fill="#218392" d="M40.93,47.24h-.9l-2.74,3.84,1.63,1.63,3.84-2.74v-.9a1.007,1.007,0,0,1,.29-.71l5.66-5.65-1.42-1.42-5.65,5.66A1.007,1.007,0,0,1,40.93,47.24Z"/><path fill="#218392" d="M51.66,44l-.12.12a1,1,0,0,1-.71.29.982.982,0,0,1-.71-.29l-2,2,5.83,5.83a2.064,2.064,0,0,0,2.84,0,2.013,2.013,0,0,0-.01-2.83Z"/><path fill="#218392" d="M45.87,48.37h.09l-.04,8.7a1,1,0,0,1-1,1l-38-.14a1,1,0,0,1-1-1l.14-42a1,1,0,0,1,1-1l5.01.02.01-2-8-.04-.17,48,44,.18.05-11.3-1.25-1.26Z"/><path fill="#218392" d="M57.9,32.1a2.041,2.041,0,0,0-2.83,0L48,39.17,50.83,42l7.07-7.07a1.992,1.992,0,0,0,0-2.83Z"/></svg>