<svg width="37" height="36" viewBox="0 0 37 36" fill="none" xmlns="http://www.w3.org/2000/svg">
<path d="M29.3414 25.8206C28.9334 26.7715 28.4294 27.6783 27.8373 28.5268C27.0462 29.6567 26.3965 30.4375 25.8986 30.8721C25.1252 31.5821 24.2943 31.9475 23.406 31.9681C22.7696 31.9681 22.0006 31.7869 21.1049 31.4186C20.2063 31.0518 19.3813 30.8721 18.6255 30.8721C17.8345 30.8721 16.9859 31.0518 16.077 31.4186C15.1695 31.7869 14.4359 31.9799 13.8746 31.9976C13.0246 32.0344 12.1746 31.6602 11.3275 30.8721C10.7868 30.4006 10.1106 29.5904 9.29893 28.4443C8.42976 27.223 7.71528 25.8014 7.15548 24.1854C6.5559 22.4367 6.25537 20.7455 6.25537 19.1074C6.25537 17.232 6.66049 15.613 7.47221 14.2577C8.08615 13.1933 8.96386 12.3049 10.0208 11.6782C11.063 11.0531 12.2528 10.7165 13.468 10.7029C14.1456 10.7029 15.034 10.9121 16.1344 11.3246C17.2349 11.7371 17.942 11.9463 18.2499 11.9463C18.4827 11.9463 19.2649 11.7003 20.5966 11.2127C21.8533 10.7604 22.9139 10.5733 23.7831 10.647C26.1402 10.837 27.9094 11.7651 29.0865 13.4386C26.9799 14.7158 25.9383 16.5028 25.959 18.7965C25.9766 20.5835 26.6263 22.0699 27.8991 23.2499C28.4618 23.7884 29.1184 24.2193 29.8363 24.5212C29.6802 24.9735 29.5152 25.4051 29.3414 25.8206V25.8206ZM23.9393 4.56131C23.9393 5.96082 23.4266 7.26899 22.4086 8.47846C21.1771 9.91627 19.6892 10.7486 18.0761 10.6175C18.055 10.4415 18.0446 10.2644 18.0451 10.0872C18.0451 8.74215 18.6285 7.30434 19.67 6.12728C20.1886 5.53212 20.8486 5.03567 21.6485 4.64086C22.4469 4.25194 23.2012 4.03686 23.9113 4.00003C23.9304 4.1886 23.9393 4.37569 23.9393 4.56131V4.56131Z" fill="white"/>
</svg>
