<svg width="6" height="6" viewBox="0 0 6 6" fill="none" xmlns="http://www.w3.org/2000/svg">
<g opacity="0.7">
<path d="M2.4345 4.85331C2.4055 4.82483 2.2815 4.71732 2.1795 4.61717C1.538 4.03002 0.488 2.49833 0.1675 1.69665C0.116 1.5749 0.007 1.26708 0 1.10262C0 0.945035 0.036 0.794812 0.109 0.651461C0.211 0.472763 0.3715 0.329412 0.561 0.250864C0.6925 0.200298 1.086 0.12175 1.093 0.12175C1.5235 0.0432016 2.223 0 2.996 0C3.7325 0 4.4035 0.0432016 4.8405 0.107513C4.8475 0.114877 5.3365 0.193425 5.504 0.279338C5.81 0.436925 6 0.744737 6 1.07415V1.10262C5.9925 1.31716 5.8025 1.76832 5.7955 1.76832C5.4745 2.5268 4.476 4.02315 3.8125 4.62454C3.8125 4.62454 3.642 4.79391 3.5355 4.86755C3.3825 4.98242 3.193 5.03937 3.0035 5.03937C2.792 5.03937 2.595 4.97506 2.4345 4.85331Z" fill="#4285F4"/>
</g>
</svg>
