<svg width="21" height="28" viewBox="0 0 21 28" fill="none" xmlns="http://www.w3.org/2000/svg">
<path d="M3.243 10.657L0.707609 8.12239C0.316825 7.73173 0.316776 7.09822 0.7075 6.7075C1.09822 6.31678 1.73173 6.31683 2.12239 6.70761L4.657 9.243H19.899C20.0549 9.24299 20.2086 9.27941 20.3479 9.34937C20.4872 9.41932 20.6082 9.52086 20.7012 9.6459C20.7943 9.77093 20.8569 9.91598 20.8839 10.0695C20.9109 10.223 20.9017 10.3807 20.857 10.53L18.457 18.53C18.3953 18.7361 18.2687 18.9168 18.0961 19.0452C17.9235 19.1737 17.7141 19.243 17.499 19.243H5.243V21.243H15.243C15.7953 21.243 16.243 21.6907 16.243 22.243C16.243 22.7953 15.7953 23.243 15.243 23.243H4.243C3.97778 23.243 3.72343 23.1376 3.53589 22.9501C3.34836 22.7626 3.243 22.5082 3.243 22.243V10.657ZM5.243 11.243V17.243H16.755L18.555 11.243H5.243ZM4.743 27.243C4.34518 27.243 3.96364 27.085 3.68234 26.8037C3.40104 26.5224 3.243 26.1408 3.243 25.743C3.243 25.3452 3.40104 24.9636 3.68234 24.6823C3.96364 24.401 4.34518 24.243 4.743 24.243C5.14082 24.243 5.52236 24.401 5.80366 24.6823C6.08496 24.9636 6.243 25.3452 6.243 25.743C6.243 26.1408 6.08496 26.5224 5.80366 26.8037C5.52236 27.085 5.14082 27.243 4.743 27.243ZM16.743 27.243C16.3452 27.243 15.9636 27.085 15.6823 26.8037C15.401 26.5224 15.243 26.1408 15.243 25.743C15.243 25.3452 15.401 24.9636 15.6823 24.6823C15.9636 24.401 16.3452 24.243 16.743 24.243C17.1408 24.243 17.5224 24.401 17.8037 24.6823C18.085 24.9636 18.243 25.3452 18.243 25.743C18.243 26.1408 18.085 26.5224 17.8037 26.8037C17.5224 27.085 17.1408 27.243 16.743 27.243Z" fill="#04103B"/>
<path d="M9.87846 3.47705L12.3556 0.999938L14.8327 3.47705" stroke="#04103B" stroke-width="2" stroke-linecap="round" stroke-linejoin="round"/>
<path d="M12.348 1.00749V7.70345" stroke="#04103B" stroke-width="2" stroke-linecap="round" stroke-linejoin="round"/>
</svg>
