<svg width="29" height="29" viewBox="0 0 29 29" fill="none" xmlns="http://www.w3.org/2000/svg">
<path opacity="0.7" fill-rule="evenodd" clip-rule="evenodd" d="M21.8733 5.588C21.93 5.69648 22.0292 5.77397 22.1567 5.77397C25.5567 5.77397 28.3333 8.81157 28.3333 12.5311V21.7368C28.3333 25.4563 25.5567 28.4939 22.1567 28.4939H6.17667C2.7625 28.4939 0 25.4563 0 21.7368V12.5311C0 8.81157 2.7625 5.77397 6.17667 5.77397C6.29 5.77397 6.40333 5.71198 6.44583 5.588L6.53083 5.40202C6.57968 5.28942 6.62982 5.17377 6.68071 5.05636C7.04312 4.22034 7.44406 3.29545 7.6925 2.75187C8.34417 1.35706 9.44917 0.582164 10.8233 0.566666H17.4958C18.87 0.582164 19.9892 1.35706 20.6408 2.75187C20.864 3.24009 21.2039 4.02653 21.5316 4.7845C21.5992 4.94085 21.6663 5.09598 21.7317 5.24704L21.8733 5.588ZM20.8391 11.5392C20.8391 12.3141 21.4058 12.934 22.1141 12.934C22.8224 12.934 23.4033 12.3141 23.4033 11.5392C23.4033 10.7643 22.8224 10.1289 22.1141 10.1289C21.4058 10.1289 20.8391 10.7643 20.8391 11.5392ZM11.7157 13.9411C12.3815 13.2127 13.2457 12.8253 14.1665 12.8253C15.0874 12.8253 15.9515 13.2127 16.6032 13.9256C17.2549 14.6385 17.609 15.5839 17.609 16.5913C17.5949 18.668 16.0649 20.3573 14.1665 20.3573C13.2457 20.3573 12.3815 19.9698 11.7299 19.2569C11.0782 18.544 10.724 17.5986 10.724 16.5913V16.5758C10.7099 15.5994 11.064 14.654 11.7157 13.9411ZM18.0907 20.8998C17.0848 22.0001 15.6965 22.682 14.1665 22.682C12.679 22.682 11.2907 22.0466 10.2282 20.8998C9.17984 19.7374 8.59901 18.2186 8.59901 16.5913C8.58484 14.9796 9.16568 13.4608 10.214 12.2984C11.2765 11.1361 12.679 10.5007 14.1665 10.5007C15.654 10.5007 17.0565 11.1361 18.1048 12.2829C19.1532 13.4453 19.734 14.9796 19.734 16.5913C19.7198 18.2806 19.0965 19.7994 18.0907 20.8998Z" fill="#4285F4"/>
</svg>
