<svg xmlns="http://www.w3.org/2000/svg" width="24" height="25" viewBox="0 0 24 25" fill="none">
<g opacity="0.4">
<path fill-rule="evenodd" clip-rule="evenodd" d="M7.33037 2.55945H16.6694C20.0704 2.55945 21.9904 4.50364 22.0004 7.93142V17.345C22.0004 20.7717 20.0704 22.7169 16.6694 22.7169H7.33037C3.92937 22.7169 2.00037 20.7717 2.00037 17.345V7.93142C2.00037 4.50364 3.92937 2.55945 7.33037 2.55945ZM12.0494 18.5443C12.4804 18.5443 12.8394 18.2218 12.8794 17.7884V7.51819C12.9194 7.20575 12.7704 6.8923 12.5004 6.72197C12.2194 6.55063 11.8794 6.55063 11.6104 6.72197C11.3394 6.8923 11.1904 7.20575 11.2194 7.51819V17.7884C11.2704 18.2218 11.6294 18.5443 12.0494 18.5443ZM16.6504 18.5443C17.0704 18.5443 17.4294 18.2218 17.4804 17.7884V14.4826C17.5094 14.1591 17.3604 13.8577 17.0894 13.6864C16.8204 13.515 16.4804 13.515 16.2004 13.6864C15.9294 13.8577 15.7804 14.1591 15.8204 14.4826V17.7884C15.8604 18.2218 16.2194 18.5443 16.6504 18.5443ZM8.21937 17.7884C8.17937 18.2218 7.82037 18.5443 7.38937 18.5443C6.95937 18.5443 6.59937 18.2218 6.56037 17.7884V10.824C6.53037 10.5106 6.67937 10.1991 6.95037 10.0278C7.21937 9.85646 7.56037 9.85646 7.83037 10.0278C8.09937 10.1991 8.25037 10.5106 8.21937 10.824V17.7884Z" fill="#030229"/>
</g>
</svg>