<svg width="12" height="13" viewBox="0 0 12 13" fill="none" xmlns="http://www.w3.org/2000/svg">
<path opacity="0.8" d="M7.14836 6.49992L11.6749 10.8807C11.9695 11.1656 11.9695 11.6263 11.6749 11.9113C11.3805 12.1962 10.9044 12.1962 10.6099 11.9113L6.08327 7.53054L1.55673 11.9113C1.26215 12.1962 0.786212 12.1962 0.491771 11.9113C0.197191 11.6263 0.197191 11.1656 0.491771 10.8807L5.01831 6.49992L0.491771 2.11917C0.197191 1.83422 0.197191 1.3735 0.491771 1.08855C0.638509 0.946404 0.831447 0.875 1.02425 0.875C1.21705 0.875 1.40985 0.946404 1.55673 1.08855L6.08327 5.46929L10.6099 1.08855C10.7568 0.946404 10.9496 0.875 11.1424 0.875C11.3352 0.875 11.528 0.946404 11.6749 1.08855C11.9695 1.3735 11.9695 1.83422 11.6749 2.11917L7.14836 6.49992Z" fill="#E71D36"/>
</svg>
