<svg width="22" height="22" viewBox="0 0 22 22" fill="none" xmlns="http://www.w3.org/2000/svg">
<path d="M10.1531 5.54692V0.9049C10.1531 0.411318 10.5271 0 11.0001 0C11.4236 0 11.7824 0.345622 11.8393 0.783409L11.8471 0.9049V5.54692L17.105 5.54727C19.723 5.54727 21.8739 7.80396 21.9947 10.6184L22 10.8681V16.7031C22 19.5372 19.9239 21.8636 17.3448 21.9942L17.116 22H4.884C2.266 22 0.125499 19.7546 0.00532156 16.9299L0 16.6792L0 10.8561C0 8.02201 2.0657 5.68435 4.64419 5.55309L4.873 5.54727H10.153V12.9606L8.393 11.0475C8.063 10.6887 7.524 10.6887 7.194 11.0475C7.029 11.2268 6.952 11.466 6.952 11.7051C6.952 11.8868 7.00128 12.0762 7.10547 12.2365L7.194 12.3508L10.395 15.8422C10.549 16.0215 10.769 16.1172 11 16.1172C11.1833 16.1172 11.3667 16.0508 11.5118 15.9248L11.594 15.8422L14.795 12.3508C15.125 11.9921 15.125 11.4062 14.795 11.0475C14.495 10.7214 14.0223 10.6917 13.6909 10.9585L13.596 11.0475L11.847 12.9606V5.54727L10.1531 5.54692Z" fill="#4285F4"/>
</svg>
