<?xml version="1.0" encoding="utf-8"?>
<!-- Generator: Adobe Illustrator 25.4.1, SVG Export Plug-In . SVG Version: 6.00 Build 0)  -->
<svg version="1.1" id="Layer_1" xmlns="http://www.w3.org/2000/svg" xmlns:xlink="http://www.w3.org/1999/xlink" x="0px" y="0px"
	 viewBox="0 0 64 64" style="enable-background:new 0 0 64 64;" xml:space="preserve">
<path fill="#03022980" d="M4.5556641,50.9819336h8.4375c0.5522461,0,1-0.4477539,1-1v-1.0637207l16.6962891,5.8928223
	c1.7724609,0.6274414,3.6191406,0.9399414,5.4648438,0.9399414c2.1459961,0,4.2910156-0.4228516,6.3134766-1.265625
	l15.4931641-6.4599609c1.987793-0.8359375,2.9716797-3.034668,2.2387695-5.0078125
	c-0.5874023-1.5717773-2.1455078-2.6279297-3.8764648-2.6279297c-0.1850586,0-0.4658203,0.0068359-0.7441406,0.0629883
	L44.206543,42.4594727c-0.2490234,0.0449219-0.4980469,0.0820312-0.7470703,0.1123047
	c0.4580078-0.6958008,0.7236328-1.5209961,0.7236328-2.4047852c0-1.2060547-0.4897461-2.3383789-1.3793945-3.1884766
	c-0.8774414-0.8378906-2.0424805-1.2993164-3.2807617-1.2993164h-4.7700195c-1.734375,0-3.4389648-0.3212891-5.0673828-0.9545898
	l-6.0888672-2.3686523c-1.1274414-0.4399414-2.3452148-0.5205078-3.5209961-0.2314453l-6.0825195,1.4846191v-1.2438965
	c0-0.5522461-0.4477539-1-1-1h-8.4375c-0.5522461,0-1,0.4477539-1,1v17.6166992
	C3.5556641,50.5341797,4.003418,50.9819336,4.5556641,50.9819336z M20.5517578,34.0673828
	c0.7734375-0.1918945,1.574707-0.1391602,2.3188477,0.1523438l6.090332,2.3691406
	c1.8598633,0.7236328,3.8085938,1.090332,5.7919922,1.090332h4.7700195c0.7216797,0,1.3959961,0.2646484,1.8994141,0.7456055
	c0.4907227,0.46875,0.7607422,1.0874023,0.7607422,1.7421875c0,1.3764648-1.1933594,2.496582-2.6601562,2.496582H22.7431641
	c-0.5522461,0-1,0.4477539-1,1s0.4477539,1,1,1H41.953125c0.8588867,0,1.7358398-0.0791016,2.6040039-0.2348633
	l11.3925781-2.0107422c1.0214844-0.203125,2.0385742,0.3959961,2.3759766,1.2978516
	c0.3637695,0.9794922-0.1264648,2.0395508-1.137207,2.4648438l-15.4897461,6.4584961
	c-3.3032227,1.3779297-6.9760742,1.4780273-10.3427734,0.2861328l-17.362793-6.1279297V35.6679688L20.5517578,34.0673828z
	 M5.5556641,33.3652344h6.4375v1.5175781v12.6220703v1.4770508h-6.4375V33.3652344z"/>
<path fill="#03022980" d="M44.4960938,15.0439453c0.9833984,0,1.7832031,0.7998047,1.7832031,1.7832031c0,0.5522461,0.4477539,1,1,1s1-0.4477539,1-1
	c0-1.7375488-1.1842041-3.1901245-2.7832031-3.631958v-1.4945068c0-0.5522461-0.4477539-1-1-1s-1,0.4477539-1,1v1.4945068
	c-1.598999,0.4418335-2.7832031,1.8944092-2.7832031,3.631958c0,2.0859375,1.6972656,3.7832031,3.7832031,3.7832031
	c0.9833984,0,1.7832031,0.7998047,1.7832031,1.7832031s-0.7998047,1.7832031-1.7832031,1.7832031
	s-1.7832031-0.7998047-1.7832031-1.7832031c0-0.5522461-0.4477539-1-1-1s-1,0.4477539-1,1
	c0,1.7375488,1.1842041,3.1901245,2.7832031,3.631958v1.4945068c0,0.5522461,0.4477539,1,1,1s1-0.4477539,1-1v-1.4945068
	c1.598999-0.4418335,2.7832031-1.8944092,2.7832031-3.631958c0-2.0859375-1.6972656-3.7832031-3.7832031-3.7832031
	c-0.9833984,0-1.7832031-0.7998047-1.7832031-1.7832031S43.5126953,15.0439453,44.4960938,15.0439453z"/>
<path fill="#03022980" d="M44.4960938,8.2539062c-6.262207,0-11.3564453,5.0942383-11.3564453,11.3564453s5.0942383,11.3564453,11.3564453,11.3564453
	s11.3564453-5.0942383,11.3564453-11.3564453S50.7583008,8.2539062,44.4960938,8.2539062z M44.4960938,28.9667969
	c-5.1591797,0-9.3564453-4.1972656-9.3564453-9.3564453s4.1972656-9.3564453,9.3564453-9.3564453
	s9.3564453,4.1972656,9.3564453,9.3564453S49.6552734,28.9667969,44.4960938,28.9667969z"/>
<path fill="#03022980" d="M16.0292969,38.0444336l3.4311523-1.121582c0.699707-0.2294922,1.4570312-0.1948242,2.1323242,0.0966797
	l4.0424805,1.7426758c0.1289062,0.0556641,0.2631836,0.0820312,0.3955078,0.0820312
	c0.387207,0,0.7558594-0.2265625,0.9189453-0.6044922c0.2182617-0.5073242-0.015625-1.0957031-0.5224609-1.3144531
	l-4.0429688-1.7426758c-1.1225586-0.484375-2.3818359-0.5415039-3.5449219-0.1611328l-3.4311523,1.121582
	c-0.5249023,0.171875-0.8115234,0.7363281-0.6401367,1.2612305C14.9399414,37.9291992,15.5043945,38.2167969,16.0292969,38.0444336z
	"/>
<path fill="#03022980" d="M28.75,39.5600586c0.2597656,0,0.5200195-0.1000977,0.7099609-0.2900391
	C29.6396484,39.0795898,29.75,38.8295898,29.75,38.5600586c0-0.2602539-0.1103516-0.5200195-0.2900391-0.7104492
	c-0.3803711-0.3696289-1.050293-0.3598633-1.4199219,0C27.8598633,38.0400391,27.75,38.2998047,27.75,38.5600586
	c0,0.2695312,0.1098633,0.5195312,0.2900391,0.7099609C28.2299805,39.4599609,28.4897461,39.5600586,28.75,39.5600586z"/>
<path fill="#03022980" d="M18.1450195,12.578125l2.9956055,1.6381836l1.6381836,2.9956055
	c0.175293,0.3208008,0.5117188,0.5200195,0.8774414,0.5200195s0.7021484-0.1992188,0.8774414-0.5200195l1.6381836-2.9956055
	l2.9956055-1.6381836c0.3208008-0.175293,0.5200195-0.5117188,0.5200195-0.8774414s-0.1992188-0.7021484-0.5200195-0.8774414
	L26.171875,9.1850586l-1.6381836-2.9956055c-0.3505859-0.6416016-1.4042969-0.6416016-1.7548828,0L21.140625,9.1850586
	l-2.9956055,1.6381836C17.8242188,10.9985352,17.625,11.3349609,17.625,11.7006836S17.8242188,12.402832,18.1450195,12.578125z
	 M22.3574219,10.7993164c0.1674805-0.0917969,0.3056641-0.2299805,0.3974609-0.3974609L23.65625,8.753418l0.9013672,1.6484375
	c0.0917969,0.1674805,0.2299805,0.3056641,0.3974609,0.3974609l1.6484375,0.9013672l-1.6484375,0.9013672
	c-0.1674805,0.0917969-0.3056641,0.2299805-0.3974609,0.3974609L23.65625,14.6479492l-0.9013672-1.6484375
	c-0.0917969-0.1674805-0.2299805-0.3056641-0.3974609-0.3974609l-1.6484375-0.9013672L22.3574219,10.7993164z"/>
<path fill="#03022980" d="M62.0268555,31.1225586L59.03125,29.484375l-1.6381836-2.9956055c-0.3505859-0.6416016-1.4042969-0.6416016-1.7548828,0
	L54,29.484375l-2.9956055,1.6381836C50.6835938,31.2978516,50.484375,31.6342773,50.484375,32
	s0.1992188,0.7021484,0.5200195,0.8774414L54,34.515625l1.6381836,2.9956055
	c0.175293,0.3208008,0.5117188,0.5200195,0.8774414,0.5200195s0.7021484-0.1992188,0.8774414-0.5200195L59.03125,34.515625
	l2.9956055-1.6381836C62.3476562,32.7021484,62.546875,32.3657227,62.546875,32S62.3476562,31.2978516,62.0268555,31.1225586z
	 M57.8144531,32.9013672c-0.1674805,0.0917969-0.3056641,0.2299805-0.3974609,0.3974609l-0.9013672,1.6484375l-0.9013672-1.6484375
	c-0.0917969-0.1674805-0.2299805-0.3056641-0.3974609-0.3974609L53.5683594,32l1.6484375-0.9013672
	c0.1674805-0.0917969,0.3056641-0.2299805,0.3974609-0.3974609l0.9013672-1.6484375l0.9013672,1.6484375
	c0.0917969,0.1674805,0.2299805,0.3056641,0.3974609,0.3974609L59.4628906,32L57.8144531,32.9013672z"/>
</svg>
