<svg width="20" height="21" viewBox="0 0 20 21" fill="none" xmlns="http://www.w3.org/2000/svg">
<g opacity="0.4">
<path fill-rule="evenodd" clip-rule="evenodd" d="M2.54 0.13385H5.92C7.33 0.13385 8.46 1.29291 8.46 2.71502V6.15086C8.46 7.58204 7.33 8.73102 5.92 8.73102H2.54C1.14 8.73102 0 7.58204 0 6.15086V2.71502C0 1.29291 1.14 0.13385 2.54 0.13385ZM2.54 11.6939H5.92C7.33 11.6939 8.46 12.8438 8.46 14.275V17.7109C8.46 19.132 7.33 20.291 5.92 20.291H2.54C1.14 20.291 0 19.132 0 17.7109V14.275C0 12.8438 1.14 11.6939 2.54 11.6939ZM17.4601 0.13385H14.0801C12.6701 0.13385 11.5401 1.29291 11.5401 2.71502V6.15086C11.5401 7.58204 12.6701 8.73102 14.0801 8.73102H17.4601C18.8601 8.73102 20.0001 7.58204 20.0001 6.15086V2.71502C20.0001 1.29291 18.8601 0.13385 17.4601 0.13385ZM14.0801 11.6939H17.4601C18.8601 11.6939 20.0001 12.8438 20.0001 14.275V17.7109C20.0001 19.132 18.8601 20.291 17.4601 20.291H14.0801C12.6701 20.291 11.5401 19.132 11.5401 17.7109V14.275C11.5401 12.8438 12.6701 11.6939 14.0801 11.6939Z" fill="#030229"/>
</g>
</svg>
