<svg width="18" height="19" viewBox="0 0 18 19" fill="none" xmlns="http://www.w3.org/2000/svg">
<g opacity="0.4">
<path fill-rule="evenodd" clip-rule="evenodd" d="M6.57946 8.42381C6.21487 8.42381 5.9266 8.73412 5.9266 9.12656C5.9266 9.50988 6.21487 9.82931 6.57946 9.82931H11.6667V14.1918C11.6667 16.4278 9.97941 18.2531 7.89365 18.2531H3.76453C1.68726 18.2531 0 16.4369 0 14.2009V4.06132C0 1.81619 1.69574 0 3.77301 0H7.91061C9.97941 0 11.6667 1.81619 11.6667 4.05219V8.42381H6.57946ZM14.6919 5.96896L17.1252 8.62479C17.2502 8.76168 17.3169 8.93509 17.3169 9.12675C17.3169 9.30928 17.2502 9.49181 17.1252 9.61958L14.6919 12.2754C14.5669 12.4123 14.4002 12.4853 14.2419 12.4853C14.0752 12.4853 13.9085 12.4123 13.7835 12.2754C13.5335 12.0016 13.5335 11.5544 13.7835 11.2806L15.1169 9.82949H11.6669V8.424H15.1169L13.7835 6.97288C13.5335 6.69908 13.5335 6.25188 13.7835 5.97808C14.0335 5.69516 14.4419 5.69516 14.6919 5.96896Z" fill="#4285F4"/>
</g>
</svg>
