<svg width="15" height="15" viewBox="0 0 15 15" fill="none" xmlns="http://www.w3.org/2000/svg">
<path opacity="0.8" d="M7.8904 6.76642L13.3972 6.76656C13.7555 6.76648 14.0451 7.05606 14.045 7.41434C14.045 7.77254 13.7554 8.06212 13.3972 8.06212L7.89033 8.06206L7.89047 13.5689C7.89039 13.9271 7.6009 14.2166 7.2427 14.2166C6.88441 14.2167 6.59483 13.9271 6.59491 13.5689L6.59477 8.06205L1.08797 8.06191C0.729681 8.06199 0.440098 7.7724 0.440179 7.41412C0.440093 7.23552 0.51257 7.07328 0.629843 6.95601C0.747117 6.83874 0.909272 6.76634 1.08795 6.76635L6.59476 6.76649L6.5947 1.2596C6.5947 1.08092 6.66709 0.918764 6.78436 0.80149C6.90164 0.684216 7.06379 0.611823 7.24247 0.611825C7.60076 0.611745 7.89034 0.901327 7.89026 1.25961L7.8904 6.76642Z" fill="#FF8F6B" stroke="#FF8F6B" stroke-width="0.5"/>
</svg>
