<svg width="22" height="22" viewBox="0 0 22 22" fill="none" xmlns="http://www.w3.org/2000/svg">
<path d="M18.1685 4.25391V3.22266C18.1685 1.44568 16.72 0 14.9395 0H7.01778C5.23733 0 3.78882 1.44568 3.78882 3.22266V4.25391H18.1685Z" fill="#4285F4"/>
<path d="M5.08008 13.7072V18.9493V20.0665V20.7111C5.08008 21.423 5.65832 22.0001 6.37166 22.0001H15.585C16.2983 22.0001 16.8766 21.423 16.8766 20.7111V20.0665V18.9493V13.7072H5.08008ZM12.7004 19.2072H9.2562C8.89955 19.2072 8.61041 18.9186 8.61041 18.5626C8.61041 18.2067 8.89955 17.9181 9.2562 17.9181H12.7004C13.0571 17.9181 13.3462 18.2067 13.3462 18.5626C13.3462 18.9186 13.0571 19.2072 12.7004 19.2072ZM12.7004 16.4572H9.2562C8.89955 16.4572 8.61041 16.1686 8.61041 15.8126C8.61041 15.4567 8.89955 15.1681 9.2562 15.1681H12.7004C13.0571 15.1681 13.3462 15.4567 13.3462 15.8126C13.3462 16.1686 13.0571 16.4572 12.7004 16.4572Z" fill="#4285F4"/>
<path d="M18.771 5.54306H3.22896C1.44851 5.54306 0 6.98874 0 8.76572V13.922C0 15.6989 1.44851 17.1446 3.22896 17.1446H3.78865V13.7071H3.40117C3.04452 13.7071 2.75538 13.4185 2.75538 13.0626C2.75538 12.7066 3.04452 12.4181 3.40117 12.4181H4.43444H17.5225H18.5558C18.9124 12.4181 19.2016 12.7066 19.2016 13.0626C19.2016 13.4185 18.9124 13.7071 18.5558 13.7071H18.1683V17.1446H18.771C20.5515 17.1446 22 15.6989 22 13.922V8.76572C22 6.98874 20.5515 5.54306 18.771 5.54306ZM5.46771 9.58212H3.40117C3.04452 9.58212 2.75538 9.29355 2.75538 8.93759C2.75538 8.58164 3.04452 8.29306 3.40117 8.29306H5.46771C5.82436 8.29306 6.1135 8.58164 6.1135 8.93759C6.1135 9.29355 5.82436 9.58212 5.46771 9.58212Z" fill="#4285F4"/>
</svg>
