
<svg xmlns="http://www.w3.org/2000/svg" xml:space="preserve" width="1.70666in" height="1.70666in" version="1.1" style="shape-rendering:geometricPrecision; text-rendering:geometricPrecision; image-rendering:optimizeQuality; fill-rule:evenodd; clip-rule:evenodd"
viewBox="0 0 1706.66 1706.66"
 xmlns:xlink="http://www.w3.org/1999/xlink"
 xmlns:xodm="http://www.corel.com/coreldraw/odm/2003">
 <defs>
  <style type="text/css">
   <![CDATA[
    .fil0 {fill:black}
   ]]>
  </style>
 </defs>
 <g id="Layer_x0020_1">
  <metadata id="CorelCorpID_0Corel-Layer"/>
  <path class="fil0" d="M903.22 1706.67l-570.83 0c-55.97,0 -101.53,-45.56 -101.53,-101.53l0 -1202.77c0,-55.97 45.56,-101.53 101.53,-101.53l570.83 0c55.97,0 101.53,45.56 101.53,101.53l0 1202.77c0,55.97 -45.56,101.53 -101.53,101.53zm-570.83 -1365.96c-33.89,0 -61.53,27.64 -61.53,61.53l0 1202.77c0,33.89 27.64,61.53 61.53,61.53l570.83 0c33.89,0 61.53,-27.64 61.53,-61.53l0 -1202.77c0,-33.89 -27.64,-61.53 -61.53,-61.53l-570.83 0z"/>
  <path class="fil0" d="M826.41 1706.67c-28.65,0 -28.65,-40 0,-40 26.39,0 26.23,40 0,40zm146.11 -38.75c-15.29,0 -25.46,-16.83 -16.94,-30.56 5.97,-9.72 9.17,-20.83 9.17,-32.22l0 -1202.77c0,-33.89 -27.64,-61.53 -61.53,-61.53l-257.63 -0c-23.06,0 -27.71,-32.95 -5.56,-39.17l375.83 -107.36c53.79,-15.31 110.22,15.96 125.56,69.86l330.42 1156.52c15.43,53.7 -15.72,110.23 -69.72,125.56 -43.43,12.32 -420.13,121.67 -429.58,121.67zm-184.02 -1367.22l114.72 0c55.97,0 101.53,45.56 101.53,101.53 0,118.29 1.72,1195.97 -0.83,1215.83l387.22 -110.69c32.4,-9.22 51.65,-43.34 42.22,-76.11l-330.28 -1156.38c-9.21,-32.39 -43.33,-51.65 -76.11,-42.22l-238.46 68.06z"/>
  <path class="fil0" d="M617.8 660.15c-71.39,0 -129.58,-58.19 -129.58,-129.58 0,-71.39 58.19,-129.58 129.58,-129.58 71.39,0 129.58,58.19 129.58,129.58 0,71.39 -58.06,129.58 -129.58,129.58zm0 -219.17c-49.44,0 -89.58,40.14 -89.58,89.58 0,49.44 40.14,89.58 89.58,89.58 49.44,0 89.58,-40.14 89.58,-89.58 0,-49.44 -40.14,-89.58 -89.58,-89.58z"/>
  <path class="fil0" d="M617.8 440.98c-6.53,0 -13.06,-3.19 -16.81,-9.17l-237.91 -370.42c-14.34,-22.33 19.54,-43.63 33.75,-21.67l237.92 370.42c8.71,13.56 -1.26,30.83 -16.94,30.83z"/>
  <path class="fil0" d="M677.11 331.67c-14.89,0 -25.16,-16.25 -17.36,-29.86l165 -291.67c13,-22.98 47.71,-3.02 34.85,19.72l-165 291.67c-3.75,6.53 -10.55,10.14 -17.5,10.14z"/>
  <path class="fil0" d="M403.22 1362.92c-11.11,0 -20,-9.03 -20,-20l0 -513.05c0,-26.36 40,-26.36 40,0l0 513.05c0,11.11 -9.03,20 -20,20z"/>
  <path class="fil0" d="M542.53 1362.92c-11.11,0 -20,-9.03 -20,-20l0 -513.05c0,-26.36 40,-26.36 40,0l0 513.05c0,11.11 -9.03,20 -20,20z"/>
  <path class="fil0" d="M681.83 1362.92c-11.11,0 -20,-9.03 -20,-20l0 -513.05c0,-26.36 40,-26.36 40,0l0 513.05c0,11.11 -9.03,20 -20,20z"/>
  <path class="fil0" d="M821.14 1362.92c-11.11,0 -20,-9.03 -20,-20l0 -513.05c0,-26.36 40,-26.36 40,0l0 513.05c0,11.11 -9.03,20 -20,20z"/>
 </g>
</svg>
