<?xml version="1.0" encoding="UTF-8"?>
<!DOCTYPE svg PUBLIC "-//W3C//DTD SVG 1.1//EN" "http://www.w3.org/Graphics/SVG/1.1/DTD/svg11.dtd">
<!-- Creator: CorelDRAW -->
<svg xmlns="http://www.w3.org/2000/svg" xml:space="preserve" width="2in" height="2in" style="shape-rendering:geometricPrecision; text-rendering:geometricPrecision; image-rendering:optimizeQuality; fill-rule:evenodd; clip-rule:evenodd"
viewBox="0 0 2 2"
 xmlns:xlink="http://www.w3.org/1999/xlink">
 <defs>
  <style type="text/css">
   <![CDATA[
    .fil2 {fill:#4285F4}
    .fil0 {fill:#7eaaff4d}
    .fil3 {fill:#F8A92E}
    .fil1 {fill:#80ABFF}
   ]]>
  </style>
 </defs>
 <g id="Layer_x0020_1">
  <metadata id="CorelCorpID_0Corel-Layer"/>
  <path class="fil0" d="M1.39893 0.444091c0.0373425,0.151917 -0.00320866,0.319236 -0.121669,0.437697 -0.0239685,0.0239685 -0.0501929,0.0450512 -0.0783819,0.0630433l0.115579 0.00515354c0.00919685,0.000409449 0.0163189,0.00819685 0.0159055,0.0173898 -0.000393701,0.00894488 -0.00776772,0.0159213 -0.0166299,0.0159213l-0.000759843 -1.5748e-005 -0.174886 -0.00779528c-0.00540157,-0.000240157 -0.0103465,-0.00308661 -0.0132677,-0.00762992 -0.00292913,-0.00453937 -0.0034685,-0.0102205 -0.00145276,-0.0152362l0.0657047 -0.163343c0.00343307,-0.00853937 0.013126,-0.0126772 0.0216811,-0.00924016 0.00853937,0.00343701 0.0126811,0.0131417 0.00924016,0.0216811l-0.0486654 0.12098c0.0298228,-0.017937 0.0574094,-0.0395197 0.0823661,-0.0644764 0.114622,-0.114626 0.150642,-0.278547 0.108055,-0.424154l-0.281677 0 0.0474528 0.0521969c0.00443701,0.00488189 0.0055748,0.0119213 0.00290945,0.0179567 -0.00266929,0.0060315 -0.00864567,0.00992126 -0.0152402,0.00992126l-0.0609724 0 0 0.124803c0,0.00920866 -0.00746457,0.0166654 -0.0166654,0.0166654l-0.175106 0c-0.00920866,0 -0.0166654,-0.00745669 -0.0166654,-0.0166654l0 -0.124803 -0.0609803 0c-0.00659449,0 -0.0125709,-0.00388976 -0.0152402,-0.00992126 -0.00266929,-0.00603543 -0.00152756,-0.0130748 0.00290945,-0.0179567l0.0474567 -0.0521969 -0.281614 0c-0.0115669,0.0391378 -0.0175591,0.0801693 -0.0175591,0.122122 0,0.114508 0.0445906,0.222165 0.125563,0.303138 0.0675394,0.0675394 0.153185,0.109717 0.247665,0.121969 0.00912992,0.00118504 0.0155669,0.00954331 0.0143819,0.0186772 -0.00109055,0.0083937 -0.00825984,0.0145197 -0.0165118,0.0145197 -0.000712598,0 -0.00143307,-4.72441e-005 -0.00216142,-0.000137795 -0.101846,-0.0132087 -0.194154,-0.0586693 -0.266945,-0.131461 -0.0872677,-0.0872677 -0.135327,-0.203295 -0.135327,-0.326705 0,-0.0382913 0.00463386,-0.0758661 0.013622,-0.112098l-0.299693 0c-0.0243425,0 -0.0441457,0.0197992 -0.0441457,0.0441457l0 0.816417 1.58559 0 0 -0.816417c0,-0.0243425 -0.0198031,-0.0441457 -0.0441417,-0.0441457l-0.299724 0zm-0.38172 0.33474c0.00920472,0 0.0166614,0.00746063 0.0166614,0.0166654 0,0.00920472 -0.00745669,0.0166654 -0.0166614,0.0166654l-0.134413 0c-0.00920866,0 -0.0166654,-0.00745669 -0.0166654,-0.0166654 0,-0.00920472 0.00745669,-0.0166614 0.0166654,-0.0166614l0.134413 -3.93701e-006zm0.0319803 -0.0750276c0.00920866,0 0.0166654,0.00745669 0.0166654,0.0166614 0,0.00920866 -0.00746063,0.0166654 -0.0166614,0.0166654l-0.198382 0c-0.00920472,0 -0.0166654,-0.00745669 -0.0166654,-0.0166614 0,-0.00920866 0.00746063,-0.0166654 0.0166654,-0.0166654l0.198378 0z"/>
  <path class="fil3" d="M1.03756 0.480815l0.0399646 0 -0.12752 -0.140268 -0.127524 0.140268 0.0399724 0c0.00920472,0 0.0166614,0.00745669 0.0166614,0.0166614l0 0.124807 0.14178 0 0 -0.124807c0,-0.00920472 0.00746063,-0.0166614 0.0166654,-0.0166614z"/>
  <path class="fil1" d="M1.7428 1.33798l-1.58559 0 0 0.0851102c0,0.0243465 0.0198031,0.0441457 0.0441457,0.0441457l0.601701 0 0.293898 0 0.601697 0c0.0243425,0 0.0441496,-0.0197992 0.0441496,-0.0441457l0 -0.0851102z"/>
  <polygon class="fil1" points="1.08028,1.50057 0.819717,1.50057 0.819717,1.60362 1.08028,1.60362 "/>
  <path class="fil1" d="M0.814713 1.63699l0 0zm-0.00974016 0.00061811l0 0zm0.280323 -0.00061811l0 0zm-0.00329528 -3.93701e-005l-0.264004 0 -0.000204724 0 -0.000204724 0 -0.00226772 2.75591e-005 -0.000208661 3.93701e-006 -0.000204724 7.87402e-006 -0.000208661 3.93701e-006 -0.000204724 3.93701e-006 -0.000208661 7.87402e-006 -0.000413386 1.1811e-005 -0.000208661 7.87402e-006 -0.000204724 7.87402e-006 -0.000208661 7.87402e-006 -0.000208661 7.87402e-006 -0.000204724 7.87402e-006 -0.000208661 7.87402e-006 -0.000204724 7.87402e-006 -0.000208661 1.1811e-005 -0.000208661 7.87402e-006 -0.000204724 7.87402e-006 -0.000830709 4.33071e-005 -0.000208661 1.1811e-005 -0.000208661 1.1811e-005 -0.000204724 1.1811e-005 -0.000208661 1.5748e-005 -0.000208661 1.1811e-005 -0.000413386 2.75591e-005 -0.000208661 1.1811e-005 -0.000208661 1.5748e-005 -0.000204724 1.1811e-005 -0.000208661 1.5748e-005 -0.000208661 1.5748e-005 -0.000413386 3.14961e-005 -0.000208661 1.5748e-005 -0.000208661 1.5748e-005 -0.00227559 0.000200787 -0.000208661 1.9685e-005 -0.000204724 2.3622e-005 -0.000208661 1.9685e-005c-0.0641535,0.00666142 -0.114358,0.0610276 -0.114358,0.126921l3.93701e-006 0.00534646 0.51922 0 0 -0.00534646c0,-0.0658346 -0.050122,-0.120185 -0.114209,-0.126906l-5.51181e-005 -3.93701e-006 -5.11811e-005 -7.87402e-006 -5.51181e-005 -3.93701e-006 -0.000208661 -2.3622e-005 -0.000204724 -1.9685e-005 -0.000204724 -1.9685e-005 -0.00206693 -0.000185039 -0.000208661 -1.5748e-005 -0.000204724 -1.5748e-005 -0.000208661 -1.9685e-005 -0.000125984 -1.1811e-005 -8.26772e-005 -3.93701e-006 -0.000204724 -1.1811e-005 -0.000208661 -1.5748e-005 -0.000208661 -1.5748e-005 -0.00144882 -9.44882e-005 -0.000208661 -1.1811e-005 -0.000208661 -1.1811e-005 -0.000204724 -1.1811e-005 -0.000208661 -1.1811e-005 -0.000622047 -3.14961e-005 -0.000208661 -7.87402e-006 -0.000204724 -1.1811e-005 -0.000208661 -7.87402e-006 -0.000208661 -7.87402e-006 -0.000826772 -3.14961e-005 -0.000208661 -7.87402e-006 -0.000208661 -7.87402e-006 -0.000204724 -7.87402e-006 -0.000208661 -3.93701e-006 -0.000204724 -7.87402e-006 -0.000216535 -7.87402e-006 -0.000200787 0 -0.000204724 -7.87402e-006 -0.000208661 -3.93701e-006 -0.00226772 -2.75591e-005 -0.000208661 0 -0.000204724 0z"/>
  <path class="fil2" d="M0.941854 1.06449c-0.000712598,0 -0.00143307,-4.72441e-005 -0.00216142,-0.000137795 -0.101846,-0.0132087 -0.194154,-0.0586693 -0.266945,-0.131461 -0.0872677,-0.0872677 -0.135327,-0.203295 -0.135327,-0.326705 0,-0.0382913 0.00463386,-0.0758661 0.013622,-0.112098l-0.299693 0c-0.0243425,0 -0.0441457,0.0197992 -0.0441457,0.0441457l0 0.816417 1.58559 0 0 -0.816417c0,-0.0243425 -0.0198031,-0.0441457 -0.0441417,-0.0441457l-0.299724 0c0.0373425,0.151917 -0.00320866,0.319236 -0.121669,0.437697 -0.0239685,0.0239685 -0.0501929,0.0450512 -0.0783819,0.0630433l0.115579 0.00515354c0.00919685,0.000409449 0.0163189,0.00819685 0.0159055,0.0173898 -0.000393701,0.00894488 -0.00776772,0.0159213 -0.0166299,0.0159213 -0.000251969,0 -0.0005,-3.93701e-006 -0.000759843,-1.5748e-005l-0.174886 -0.00779528c-0.00540157,-0.000240157 -0.0103465,-0.00308661 -0.0132677,-0.00762992 -0.00292913,-0.00453937 -0.0034685,-0.0102205 -0.00145276,-0.0152362l0.0657047 -0.163343c0.00343307,-0.00853937 0.013126,-0.0126772 0.0216811,-0.00924016 0.00853937,0.00343701 0.0126811,0.0131417 0.00924016,0.0216811l-0.0486654 0.12098c0.0298228,-0.017937 0.0574094,-0.0395197 0.0823661,-0.0644764 0.167146,-0.16715 0.167146,-0.439122 -3.93701e-006,-0.606276 -0.0675472,-0.0675433 -0.153185,-0.109724 -0.247669,-0.12198 -0.00912598,-0.00118504 -0.0155669,-0.00954331 -0.0143819,-0.0186732 0.0011811,-0.00912598 0.00951575,-0.0155551 0.0186732,-0.0143819 0.101846,0.0132126 0.194154,0.0586732 0.266945,0.131469 0.0529449,0.0529449 0.090315,0.115657 0.112134,0.182386l0.309264 0c0.0427165,0 0.0774685,0.034752 0.0774685,0.0774724l0 0.833083 0 0.101776c0,0.0427205 -0.0347559,0.0774724 -0.0774764,0.0774724l-0.585035 0 0 0.106177c0.0736575,0.0147283 0.129331,0.0798858 0.129331,0.157811l0 0.0220118c0,0.00920472 -0.00746063,0.0166654 -0.0166614,0.0166654l-0.552551 0c-0.00920472,0 -0.0166654,-0.00746063 -0.0166654,-0.0166654l0 -0.0220118c0,-0.0779213 0.0556693,-0.143075 0.129323,-0.157807l0 -0.106181 -0.585035 0c-0.0427205,0 -0.0774724,-0.0347559 -0.0774724,-0.0774724l0 -0.101776 0 -0.833083c0,-0.0427205 0.034752,-0.0774724 0.0774724,-0.0774724l0.309307 0c0.0223228,-0.0675787 0.0603031,-0.129492 0.112091,-0.18128 0.0239606,-0.0239646 0.050185,-0.0450472 0.078374,-0.0630394l-0.115583 -0.00515354c-0.00919685,-0.000409449 -0.0163189,-0.00819291 -0.0159055,-0.0173898 0.000409449,-0.00919291 0.00817323,-0.0162992 0.0173898,-0.0159055l0.174894 0.00779134c0.00539764,0.000240157 0.0103425,0.00308268 0.0132717,0.00762992 0.00292126,0.00454331 0.00346457,0.0102244 0.00144882,0.0152402l-0.0657087 0.163335c-0.00261811,0.0065 -0.00886614,0.0104488 -0.0154685,0.0104488 -0.0020748,0 -0.00417717,-0.000389764 -0.00621654,-0.00120866 -0.00853937,-0.00343307 -0.0126732,-0.0131417 -0.00924016,-0.0216772l0.0486654 -0.120969c-0.0298189,0.017937 -0.0574016,0.0395157 -0.0823504,0.0644646 -0.0503583,0.0503543 -0.0866417,0.111039 -0.106882,0.177268 -0.000228346,0.00130709 -0.000606299,0.00256299 -0.00112205,0.00374803 -0.0115669,0.0391378 -0.0175591,0.0801693 -0.0175591,0.122122 0,0.114508 0.0445906,0.222165 0.125563,0.303138 0.0675394,0.0675394 0.153185,0.109717 0.247665,0.121969 0.00912992,0.00118504 0.0155669,0.00954331 0.0143819,0.0186772 -0.00109055,0.0083937 -0.00825984,0.0145197 -0.0165118,0.0145197zm0.203551 0.623157l-5.51181e-005 -3.93701e-006 -5.11811e-005 -7.87402e-006 -5.51181e-005 -3.93701e-006 -0.000204724 -1.9685e-005 -3.93701e-006 -3.93701e-006 -0.000204724 -1.9685e-005 -0.000204724 -1.9685e-005 -0.00206693 -0.000185039 -0.000208661 -1.5748e-005 -0.000204724 -1.5748e-005 -0.000208661 -1.9685e-005 -0.000125984 -1.1811e-005 -8.26772e-005 -3.93701e-006 -0.000204724 -1.1811e-005 -0.000208661 -1.5748e-005 -0.000208661 -1.5748e-005 -0.00144882 -9.44882e-005 -0.000208661 -1.1811e-005 -0.000208661 -1.1811e-005 -0.000204724 -1.1811e-005 -0.000208661 -1.1811e-005 -0.000622047 -3.14961e-005 -0.000208661 -7.87402e-006 -0.000204724 -1.1811e-005 -0.000208661 -7.87402e-006 -0.000208661 -7.87402e-006 -0.000826772 -3.14961e-005 -0.000208661 -7.87402e-006 -0.000208661 -7.87402e-006 -0.000204724 -7.87402e-006 -0.000208661 -3.93701e-006 -0.000204724 -7.87402e-006 -0.000208661 -3.93701e-006 -7.87402e-006 -3.93701e-006 -0.000200787 0 -0.000204724 -7.87402e-006 -0.000208661 -3.93701e-006 -0.00226772 -2.75591e-005 -0.000208661 0 -0.000204724 0 -0.264004 0 -0.000204724 0 -0.000204724 0 -0.00226772 2.75591e-005 -0.000208661 3.93701e-006 -0.000204724 7.87402e-006 -0.000192913 0 -1.5748e-005 3.93701e-006 -0.000204724 3.93701e-006 -0.000208661 7.87402e-006 -0.000413386 1.1811e-005 -0.000208661 7.87402e-006 -0.000204724 7.87402e-006 -0.000208661 7.87402e-006 -0.000208661 7.87402e-006 -0.000204724 7.87402e-006 -0.000208661 7.87402e-006 -0.000204724 7.87402e-006 -0.000208661 1.1811e-005 -0.000208661 7.87402e-006 -0.000204724 7.87402e-006 -0.000830709 4.33071e-005 -0.000208661 1.1811e-005 -0.000208661 1.1811e-005 -0.000204724 1.1811e-005 -0.000208661 1.5748e-005 -0.000208661 1.1811e-005 -0.000413386 2.75591e-005 -0.000208661 1.1811e-005 -0.000208661 1.5748e-005 -0.000204724 1.1811e-005 -0.000208661 1.5748e-005 -0.000208661 1.5748e-005 -0.000413386 3.14961e-005 -0.000208661 1.5748e-005 -0.000208661 1.5748e-005 -0.00227559 0.000200787 -0.000208661 1.9685e-005 -0.000188976 1.9685e-005 -1.5748e-005 3.93701e-006 -0.000208661 1.9685e-005c-0.0641535,0.00666142 -0.114358,0.0610276 -0.114358,0.126921l3.93701e-006 0.00534646 0.51922 0 0 -0.00534646c0,-0.0658346 -0.050122,-0.120185 -0.114209,-0.126906zm-0.015122 -0.137083l-0.260567 0 0 0.103055 0.260567 0 0 -0.103055zm-0.923079 -0.162583l0 0.0851102c0,0.0243465 0.0198031,0.0441457 0.0441457,0.0441457l0.601701 0 0.293898 0 0.601697 0c0.0243425,0 0.0441496,-0.0197992 0.0441496,-0.0441457l0 -0.0851102 -1.58559 0zm0.860004 -0.525823l-0.134413 0c-0.00920866,0 -0.0166654,-0.00745669 -0.0166654,-0.0166654 0,-0.00920472 0.00745669,-0.0166614 0.0166654,-0.0166614l0.134413 -3.93701e-006c0.00920472,0 0.0166614,0.00746063 0.0166614,0.0166654 0,0.00920472 -0.00745669,0.0166654 -0.0166614,0.0166654zm0.0319843 -0.0750315l-0.198382 0c-0.00920472,0 -0.0166654,-0.00745669 -0.0166654,-0.0166614 0,-0.00920866 0.00746063,-0.0166654 0.0166654,-0.0166654l0.198378 0c0.00920866,0 0.0166654,0.00745669 0.0166654,0.0166614 0,0.00920866 -0.00746063,0.0166654 -0.0166614,0.0166654zm-0.0116378 -0.0815197l-0.175106 0c-0.00920866,0 -0.0166654,-0.00745669 -0.0166654,-0.0166654l0 -0.124803 -0.0609803 0c-0.00659449,0 -0.0125709,-0.00388976 -0.0152402,-0.00992126 -0.00266929,-0.00603543 -0.00152756,-0.0130748 0.00290945,-0.0179567l0.165197 -0.181705c0.00316142,-0.00347244 0.0076378,-0.00545276 0.0123346,-0.00545276l0 0c0.00469685,0 0.00916929,0.00198031 0.0123307,0.00545276l0.165189 0.181705c0.00443701,0.00488189 0.0055748,0.0119213 0.00290945,0.0179567 -0.00266929,0.0060315 -0.00864567,0.00992126 -0.0152402,0.00992126l-0.0609724 0 0 0.124803c0,0.00920866 -0.00746457,0.0166654 -0.0166654,0.0166654zm-0.158445 -0.0333268l0.14178 0 0 -0.124807c0,-0.00920472 0.00746063,-0.0166614 0.0166654,-0.0166614l0.0399646 0 -0.12752 -0.140268 -0.127524 0.140268 0.0399724 0c0.00920472,0 0.0166614,0.00745669 0.0166614,0.0166614l0 0.124807z"/>
 </g>
</svg>
