<?xml version="1.0" encoding="UTF-8"?>
<!DOCTYPE svg PUBLIC "-//W3C//DTD SVG 1.1//EN" "http://www.w3.org/Graphics/SVG/1.1/DTD/svg11.dtd">
<!-- Creator: CorelDRAW -->
<svg xmlns="http://www.w3.org/2000/svg" xml:space="preserve" width="2.66666in" height="2.66666in" version="1.1" style="shape-rendering:geometricPrecision; text-rendering:geometricPrecision; image-rendering:optimizeQuality; fill-rule:evenodd; clip-rule:evenodd"
viewBox="0 0 2667 2667"
 xmlns:xlink="http://www.w3.org/1999/xlink">
 <defs>
  <style type="text/css">
   <![CDATA[
    .fil1 {fill:white}
    .fil0 {fill:url(#id0)}
    .fil2 {fill:url(#id1)}
   ]]>
  </style>
  <linearGradient id="id0" gradientUnits="userSpaceOnUse" x1="-0.00393701" y1="1333.33" x2="2666.67" y2="1333.33">
   <stop offset="0" style="stop-opacity:1; stop-color:#0755d1"/>
   <stop offset="1" style="stop-opacity:1; stop-color:#17adc0"/>
  </linearGradient>
  <linearGradient id="id1" gradientUnits="userSpaceOnUse" xlink:href="#id0" x1="480.012" y1="1333.33" x2="2186.65" y2="1333.33">
  </linearGradient>
 </defs>
 <g id="_336234432">
  <rect class="fil0" width="2667" height="2667" rx="592" ry="592"/>
  <rect class="fil1" x="215" y="215" width="2237" height="2237" rx="497" ry="497"/>
 </g>
 <g id="Layer_x0020_1">
  <metadata id="CorelCorpID_0Corel-Layer"/>
  <path class="fil2" d="M1647 1952l-159 0c-30,0 -30,-46 0,-46l159 0c30,0 30,46 0,46zm-284 -212l-860 0c-13,0 -23,-10 -23,-23l0 -227c0,-138 112,-250 250,-250l142 0 40 -69c-55,-40 -91,-104 -91,-177l0 -87c-48,-131 -27,-218 0,-269 9,-17 29,-17 43,-17 -3,-13 -8,-34 8,-48 85,-76 225,-85 319,-20 46,32 145,129 67,340l0 101c0,73 -36,137 -91,177l40 69 142 0c115,0 216,81 243,191l572 0c12,0 23,10 23,22l0 681c0,13 -11,23 -23,23l-778 0c-13,0 -23,-10 -23,-23l0 -394zm-454 -472c6,67 63,120 131,120 67,0 125,-53 131,-120l-43 -74c-56,25 -120,25 -177,0l-42 74zm665 208l-166 0 0 635 733 0 0 -635 -88 0 0 373c0,19 -22,29 -37,17l-107 -88 -107 88c-15,12 -37,2 -37,-17l0 -373 -191 0zm-1049 219l146 0 0 -217c0,-30 45,-30 45,0l0 217 647 0 0 -242c0,-12 10,-22 23,-22l159 0c-26,-85 -106,-146 -196,-146l-135 0c-13,85 -86,148 -174,148 -88,0 -161,-63 -175,-148l-135 0c-113,0 -205,92 -205,205l0 205zm342 -793l0 92c0,134 145,216 259,150 52,-30 87,-86 87,-150 0,-18 -1,-101 1,-112 9,-82 -21,-141 -54,-154 -29,-12 -64,7 -98,52 -5,7 -14,11 -22,9 -53,-10 -189,-17 -174,110l1 3zm-26 -101c45,-68 148,-64 194,-59 81,-99 170,-70 206,11 4,-203 -220,-244 -334,-150 6,34 13,66 -43,64 -2,0 -4,0 -7,0 -18,38 -23,84 -16,134zm1068 925c5,0 10,1 15,5l84 69 0 -324 -198 0 0 324 85 -69c4,-4 9,-5 14,-5zm-106 306l-315 0c-30,0 -30,-45 0,-45l315 0c30,0 30,45 0,45z"/>
 </g>
</svg>
