<?xml version="1.0" encoding="UTF-8"?>
<!DOCTYPE svg PUBLIC "-//W3C//DTD SVG 1.1//EN" "http://www.w3.org/Graphics/SVG/1.1/DTD/svg11.dtd">
<!-- Creator: CorelDRAW -->
<svg xmlns="http://www.w3.org/2000/svg" xml:space="preserve" width="2.66666in" height="2.66666in" version="1.1" style="shape-rendering:geometricPrecision; text-rendering:geometricPrecision; image-rendering:optimizeQuality; fill-rule:evenodd; clip-rule:evenodd"
viewBox="0 0 2667 2667"
 xmlns:xlink="http://www.w3.org/1999/xlink">
 <defs>
  <style type="text/css">
   <![CDATA[
    .fil1 {fill:white}
    .fil0 {fill:url(#id0)}
    .fil2 {fill:url(#id1)}
   ]]>
  </style>
  <linearGradient id="id0" gradientUnits="userSpaceOnUse" x1="-0.00393701" y1="1333.33" x2="2666.67" y2="1333.33">
   <stop offset="0" style="stop-opacity:1; stop-color:#17adc0"/>
   <stop offset="1" style="stop-opacity:1; stop-color:#0755d1"/>
  </linearGradient>
  <linearGradient id="id1" gradientUnits="userSpaceOnUse" xlink:href="#id0" x1="580.551" y1="1333.33" x2="2086.1" y2="1333.33">
  </linearGradient>
 </defs>
 <g id="_336234432">
  <rect class="fil0" width="2667" height="2667" rx="592" ry="592"/>
  <rect class="fil1" x="215" y="215" width="2237" height="2237" rx="497" ry="497"/>
 </g>
 <g id="Layer_x0020_1">
  <metadata id="CorelCorpID_0Corel-Layer"/>
  <path class="fil2" d="M1178 1829c-8,0 -15,-4 -19,-10l-230 -368c-171,22 -303,167 -303,344l0 167 192 0 0 -60c0,-30 45,-30 45,0l0 239 352 0 34 -286 -40 -40c-10,6 -22,14 -31,14zm-133 -979l-118 -205c-8,-13 -2,-28 12,-33l382 -131c5,-1 10,-1 15,0l382 131c14,4 20,20 13,33l-119 205 0 61c0,33 -9,65 -26,91l0 120c0,71 -29,135 -75,182l26 99c34,0 166,-2 193,1 199,18 356,187 356,391l0 369c0,12 -10,23 -23,23l-1460 0c-12,0 -22,-11 -22,-23l0 -369c0,-218 177,-392 392,-392l156 0 25 -92c-51,-47 -83,-114 -83,-189l0 -120c-17,-26 -26,-58 -26,-91l0 -61zm36 -29l495 0 102 -175 -349 -119 -349 119 101 175zm106 262c-26,-5 -50,-16 -71,-31 0,104 -6,157 80,235 36,30 82,47 133,47 116,0 212,-95 212,-212l0 -70c-30,22 -67,34 -104,34 -45,0 -215,4 -248,-3l-2 0zm-97 -217c0,45 -4,78 22,117 25,36 65,58 109,58l219 0c70,-2 127,-60 127,-130l0 -45 -477 0zm-109 582l205 328 115 -67 -167 -261 -153 0zm551 0l-167 261 116 67 205 -328 -154 0zm206 3l-230 367c-14,23 -37,5 -50,-3l-40 40 33 286 353 0 0 -239c0,-30 45,-30 45,0l0 60 192 0 0 -167c0,-177 -133,-323 -303,-344zm-1112 556l0 134 192 0 0 -134 -192 0zm1223 134l192 0 0 -134 -192 0 0 134zm-354 -719l-23 -86c-84,56 -193,58 -279,5l-22 81 162 253 162 -253zm-125 342l-37 -21 -84 48 84 84 84 -84 -47 -27zm-37 166c-15,0 -29,-20 -43,-34l-29 245 144 0 -28 -245c-15,14 -28,34 -44,34zm569 -137l-151 0c-30,0 -30,-46 0,-46l151 0c30,0 30,46 0,46zm-986 0l-151 0c-30,0 -30,-46 0,-46l151 0c30,0 30,46 0,46zm469 -1010c-9,0 -44,-19 -56,-25l-47 22c-16,8 -35,-5 -32,-23l7 -51 -36 -38c-12,-13 -5,-34 12,-38l51 -9 25 -45c8,-16 31,-16 40,0l24 45 51 9c18,4 25,25 12,38l-35 38 6 51c2,14 -8,26 -22,26zm-56 -73c8,0 19,7 28,11 -5,-34 -7,-29 17,-53 -34,-7 -29,-3 -45,-34 -17,31 -12,27 -46,34 24,24 22,19 17,53 9,-4 21,-11 29,-11z"/>
 </g>
</svg>
