<?xml version="1.0" encoding="UTF-8"?>
<!DOCTYPE svg PUBLIC "-//W3C//DTD SVG 1.1//EN" "http://www.w3.org/Graphics/SVG/1.1/DTD/svg11.dtd">
<!-- Creator: CorelDRAW -->
<svg xmlns="http://www.w3.org/2000/svg" xml:space="preserve" width="2.66666in" height="2.66666in" version="1.1" style="shape-rendering:geometricPrecision; text-rendering:geometricPrecision; image-rendering:optimizeQuality; fill-rule:evenodd; clip-rule:evenodd"
viewBox="0 0 2667 2667"
 xmlns:xlink="http://www.w3.org/1999/xlink">
 <defs>
  <style type="text/css">
   <![CDATA[
    .fil1 {fill:white}
    .fil0 {fill:url(#id0)}
    .fil2 {fill:url(#id1)}
   ]]>
  </style>
  <linearGradient id="id0" gradientUnits="userSpaceOnUse" x1="-0.00393701" y1="1333.33" x2="2666.67" y2="1333.33">
   <stop offset="0" style="stop-opacity:1; stop-color:#0755d1"/>
   <stop offset="1" style="stop-opacity:1; stop-color:#17adc0"/>
  </linearGradient>
  <linearGradient id="id1" gradientUnits="userSpaceOnUse" xlink:href="#id0" x1="480.016" y1="1333.33" x2="2186.65" y2="1333.33">
  </linearGradient>
 </defs>
 <g id="_336234432">
  <rect class="fil0" width="2667" height="2667" rx="592" ry="592"/>
  <rect class="fil1" x="215" y="215" width="2237" height="2237" rx="497" ry="497"/>
 </g>
 <g id="Layer_x0020_1">
  <metadata id="CorelCorpID_0Corel-Layer"/>
  <path class="fil2" d="M1333 1472c-86,0 -86,-131 0,-131 86,0 86,131 0,131zm344 -75l-50 0 0 149 184 0c13,0 23,10 23,23l0 88c0,13 -10,23 -23,23l-117 0 0 450c0,13 -10,23 -22,23l-677 0c-12,0 -23,-10 -23,-23l0 -450 -117 0c-12,0 -22,-10 -22,-23l0 -88c0,-13 10,-23 22,-23l185 0 0 -149c-31,0 -73,8 -73,-23l0 -145c0,-17 2,-33 7,-48l-471 0c-13,0 -23,-10 -23,-23l0 -119c0,-78 64,-142 142,-142l68 0 13 -22c-60,-52 -39,-111 -44,-140 -26,-71 -14,-119 1,-148 5,-9 13,-12 20,-13 -1,-8 1,-17 9,-24 49,-43 127,-48 181,-11 26,18 82,72 40,189 -6,30 17,94 -45,147l13 22 69 0c78,0 141,64 141,142l0 28c39,-11 93,-7 134,-7l19 -33c-76,-61 -50,-138 -56,-170 -31,-86 -17,-144 1,-177 6,-11 16,-14 25,-15 -1,-9 0,-21 10,-29 58,-52 150,-58 214,-14 31,22 97,87 46,226 -5,33 22,117 -55,179l19 33c40,0 95,-4 133,7l0 -28c0,-78 64,-142 142,-142l68 0 13 -22c-60,-52 -39,-111 -44,-140 -26,-71 -14,-119 1,-148 5,-9 13,-12 20,-13 0,-8 1,-17 9,-24 49,-43 127,-48 181,-11 26,18 82,72 40,189 -6,30 17,94 -45,147l13 22 69 0c78,0 142,64 142,142l0 119c0,13 -11,23 -23,23l-471 0c4,15 7,31 7,48l0 145c0,13 -10,23 -23,23zm-682 -262c13,-18 29,-35 48,-47l0 -49c0,-53 -43,-97 -96,-97l-62 0c-27,103 -175,103 -201,0l-62 0c-53,0 -97,44 -97,97l0 96 55 0 0 -102c0,-29 46,-29 46,0l0 102 317 0 0 -102c0,-29 45,-29 45,0l0 102 7 0zm263 -47c5,38 37,67 75,67 39,0 71,-29 76,-67l-23 -39c-33,13 -73,13 -106,0l-22 39zm366 0c19,12 35,29 47,47l7 0 0 -102c0,-29 46,-29 46,0l0 102 317 0 0 -102c0,-29 46,-29 46,0l0 102 54 0 0 -96c0,-53 -43,-97 -96,-97l-62 0c-26,103 -175,103 -201,0l-62 0c-53,0 -96,44 -96,97l0 49zm3 263l27 0 0 -122c0,-67 -56,-123 -123,-123l-79 0c-28,125 -209,125 -237,0 -81,0 -141,-12 -188,65 -9,17 -15,37 -15,58l0 122 28 0c0,-28 -3,-92 1,-114l6 -9 0 -1 0 0 1 0 0 -1 1 0 0 0 1 -1 0 0 0 0 1 -1 0 0 1 0 0 0 1 -1 0 0 1 0 0 0 1 0 0 -1 1 0 0 0 1 0 1 0 0 0 1 0 0 -1 1 0 0 0 1 0 1 0 0 0 1 0 541 0c13,0 23,10 23,23l0 107zm-396 -498c0,62 -8,111 53,148 64,39 152,-12 152,-90 0,-19 -2,-56 1,-73 10,-55 -25,-136 -83,-59 -5,8 -14,11 -22,9 -42,-8 -110,-6 -101,62l0 3zm-19 -85c35,-31 89,-29 115,-26 48,-57 97,-47 124,-16 -17,-87 -127,-112 -194,-62 7,28 -5,47 -35,46 -7,17 -10,37 -10,58zm613 157c4,28 29,50 57,50 29,0 54,-22 58,-50l-16 -28c-26,9 -57,9 -83,0l-16 28zm-23 -194c0,49 -6,89 42,118 52,31 118,-12 118,-70 0,-18 -2,-43 1,-60 7,-43 -16,-105 -60,-46 -5,7 -14,11 -23,9 -28,-5 -85,-8 -78,46l0 3zm-15 -78c29,-20 67,-19 88,-17 39,-44 76,-37 97,-21 -21,-58 -100,-71 -147,-37 5,23 -7,40 -31,40 -4,11 -6,23 -7,35zm-1060 272c4,28 28,50 57,50 29,0 54,-22 58,-50l-16 -28c-26,9 -57,9 -83,0l-16 28zm-23 -193c0,48 -5,88 42,117 51,31 118,-12 118,-70 0,-18 -2,-43 1,-60 7,-43 -16,-105 -60,-46 -5,7 -14,11 -23,9 -26,-5 -86,-8 -78,45 0,2 0,4 0,5zm-15 -79c28,-20 67,-19 88,-17 39,-44 75,-37 97,-21 -21,-58 -100,-71 -147,-37 5,23 -7,40 -31,40 -4,11 -6,23 -7,35zm892 893l0 -279 -496 0 0 279 496 0zm-703 88l911 0 0 -43 -911 0 0 43zm140 473l631 0 0 -427 -631 0 0 427zm315 -721c-25,0 -25,40 0,40 26,0 26,-40 0,-40z"/>
 </g>
</svg>
