<?xml version="1.0" encoding="UTF-8"?>
<!DOCTYPE svg PUBLIC "-//W3C//DTD SVG 1.1//EN" "http://www.w3.org/Graphics/SVG/1.1/DTD/svg11.dtd">
<!-- Creator: CorelDRAW -->
<svg xmlns="http://www.w3.org/2000/svg" xml:space="preserve" width="2.66666in" height="2.66666in" version="1.1" style="shape-rendering:geometricPrecision; text-rendering:geometricPrecision; image-rendering:optimizeQuality; fill-rule:evenodd; clip-rule:evenodd"
viewBox="0 0 2667 2667"
 xmlns:xlink="http://www.w3.org/1999/xlink">
 <defs>
  <style type="text/css">
   <![CDATA[
    .fil1 {fill:white}
    .fil0 {fill:url(#id0)}
    .fil2 {fill:url(#id1)}
   ]]>
  </style>
  <linearGradient id="id0" gradientUnits="userSpaceOnUse" x1="-0.00393701" y1="1333.33" x2="2666.67" y2="1333.33">
   <stop offset="0" style="stop-opacity:1; stop-color:#17adc0"/>
   <stop offset="1" style="stop-opacity:1; stop-color:#0755d1"/>
  </linearGradient>
  <linearGradient id="id1" gradientUnits="userSpaceOnUse" xlink:href="#id0" x1="480.008" y1="1333.33" x2="2186.66" y2="1333.33">
  </linearGradient>
 </defs>
 <g id="_336234432">
  <rect class="fil0" width="2667" height="2667" rx="592" ry="592"/>
  <rect class="fil1" x="215" y="215" width="2237" height="2237" rx="497" ry="497"/>
 </g>
 <g id="Layer_x0020_1">
  <metadata id="CorelCorpID_0Corel-Layer"/>
  <path class="fil2" d="M2037 1643l0 -107c0,-29 46,-29 46,0l0 107 58 0 0 -101c0,-55 -45,-101 -101,-101l-84 0 -66 96c-8,13 -28,13 -37,0l-66 -96c-31,0 -90,-4 -119,7 37,31 61,77 63,126l0 69 306 0zm-329 116l-725 0c-30,0 -22,-42 -22,-70l-458 0c-13,0 -23,-10 -23,-23l0 -124c0,-80 66,-146 146,-146l79 0 8 -29c-66,-54 -42,-121 -47,-153 -44,-120 14,-176 41,-195 55,-38 135,-33 186,12 8,7 10,16 9,24 8,1 16,5 21,14 15,29 28,79 1,153 -5,29 17,93 -47,145l8 29c60,0 119,-8 169,31 25,-13 53,-20 83,-20l101 0 12 -43c-80,-63 -53,-146 -59,-179 -33,-90 -18,-151 1,-187 6,-11 17,-14 26,-15 -1,-9 -1,-21 10,-30 61,-55 157,-61 224,-15 33,23 102,91 49,237 -6,34 22,124 -59,189l11 43 102 0c24,0 47,5 68,13 47,-31 105,-24 159,-24l7 -29c-65,-54 -41,-121 -47,-152 -43,-121 14,-177 42,-196 55,-38 135,-33 186,12 8,7 10,16 9,24 8,1 16,5 21,14 15,29 28,79 1,153 -5,29 17,93 -47,145l8 29 78 0c81,0 147,66 147,146l0 124c0,13 -11,23 -23,23l-433 0c0,28 8,70 -23,70zm-747 -193c4,-43 24,-82 54,-110 -15,-10 -33,-15 -52,-15l-84 0 -65 96c-9,12 -29,12 -38,0l-65 -96 -85 0c-55,0 -101,46 -101,101l0 101 59 0 0 -107c0,-29 45,-29 45,0l0 107 332 0c0,-25 -2,-51 0,-77zm320 -141l65 95 65 -95 -10 -38c-35,13 -76,13 -110,0l-10 38zm-275 289l84 0 0 -139c0,-29 45,-29 45,0l0 139 422 0 0 -139c0,-29 45,-29 45,0l0 139 84 0 0 -131c0,-71 -60,-131 -131,-131l-107 0 -83 121c-9,12 -29,12 -38,0l-83 -121 -107 0c-72,0 -131,60 -131,131l0 131zm230 -537c7,45 -22,108 54,159 64,44 165,-5 165,-94 0,-19 -2,-60 1,-77 11,-57 -26,-147 -89,-63 -5,8 -14,11 -23,9 -18,-3 -70,-8 -95,15 -11,11 -16,28 -13,51zm-19 -83c36,-34 94,-33 122,-29 52,-61 104,-49 133,-15 -16,-96 -135,-125 -208,-69 7,30 -4,49 -37,48 -8,19 -11,41 -10,65zm-470 320l48 70 48 -70 -7 -24c-26,9 -56,9 -82,0l-7 24zm147 -275c0,-14 -2,-27 -7,-39 -25,0 -36,-17 -31,-41 -51,-37 -135,-22 -156,41 23,-18 62,-26 102,20 22,-2 63,-3 92,19zm-184 66c8,31 -20,94 42,135 54,35 127,-10 127,-72 0,-18 -2,-36 0,-54 8,-56 -54,-53 -82,-48 -9,2 -18,-1 -23,-8 -40,-55 -70,-14 -64,47zm1114 209l48 70 48 -70 -7 -24c-26,9 -57,9 -83,0l-6 24zm132 -195c-1,-23 3,-30 -9,-42 -19,-17 -60,-13 -73,-11 -9,2 -18,-1 -23,-8 -46,-62 -72,1 -64,47 8,44 -19,95 42,135 54,35 127,-10 127,-72l0 -49zm15 -80c0,-14 -2,-27 -7,-39 -25,1 -37,-18 -32,-41 -50,-37 -135,-22 -155,41 23,-18 62,-26 102,20 22,-2 63,-3 92,19z"/>
 </g>
</svg>
