<?xml version="1.0" encoding="UTF-8"?>
<!DOCTYPE svg PUBLIC "-//W3C//DTD SVG 1.1//EN" "http://www.w3.org/Graphics/SVG/1.1/DTD/svg11.dtd">
<!-- Creator: CorelDRAW -->
<svg xmlns="http://www.w3.org/2000/svg" xml:space="preserve" width="2.66666in" height="2.66666in" version="1.1" style="shape-rendering:geometricPrecision; text-rendering:geometricPrecision; image-rendering:optimizeQuality; fill-rule:evenodd; clip-rule:evenodd"
viewBox="0 0 2667 2667"
 xmlns:xlink="http://www.w3.org/1999/xlink">
 <defs>
  <style type="text/css">
   <![CDATA[
    .fil1 {fill:white}
    .fil0 {fill:url(#id0)}
    .fil2 {fill:url(#id1)}
   ]]>
  </style>
  <linearGradient id="id0" gradientUnits="userSpaceOnUse" x1="-0.00393701" y1="1333.33" x2="2666.67" y2="1333.33">
   <stop offset="0" style="stop-opacity:1; stop-color:#17adc0"/>
   <stop offset="1" style="stop-opacity:1; stop-color:#0755d1"/>
  </linearGradient>
  <linearGradient id="id1" gradientUnits="userSpaceOnUse" xlink:href="#id0" x1="480.004" y1="1333.33" x2="2186.65" y2="1333.33">
  </linearGradient>
 </defs>
 <g id="_336234432">
  <rect class="fil0" width="2667" height="2667" rx="592" ry="592"/>
  <rect class="fil1" x="215" y="215" width="2237" height="2237" rx="497" ry="497"/>
 </g>
 <g id="Layer_x0020_1">
  <metadata id="CorelCorpID_0Corel-Layer"/>
  <path class="fil2" d="M2164 2117l-684 0c-13,0 -23,-10 -23,-22l0 -145c0,-93 75,-168 168,-168l86 0 19 -33c-75,-60 -50,-138 -56,-169 -31,-86 -16,-143 1,-177 6,-11 16,-14 25,-15 -1,-9 0,-20 9,-29 59,-51 150,-57 214,-13 31,21 97,86 46,225 -5,33 22,116 -55,178l19 33 86 0c92,0 168,75 168,168l0 145c0,12 -11,22 -23,22zm0 -968l-638 0c-13,0 -23,-10 -23,-22l0 -555c0,-12 10,-23 23,-23l638 0c12,0 23,11 23,23l0 555c0,12 -11,22 -23,22zm-615 -45l592 0 0 -509 -102 0 0 260c0,13 -10,23 -23,23l-167 0c-12,0 -22,-10 -22,-23l0 -260 -278 0 0 509zm445 -509l-122 0 0 237 122 0 0 -237zm-713 527l-778 0c-13,0 -23,-10 -23,-22l0 -528c0,-12 10,-23 23,-23l778 0c13,0 23,11 23,23l0 528c0,12 -10,22 -23,22zm-756 -45l734 0 0 -482 -734 0 0 482zm1317 -30l-219 0c-29,0 -29,-46 0,-46l219 0c30,0 29,46 0,46zm-67 -89l-152 0c-29,0 -29,-45 0,-45l152 0c30,0 30,45 0,45zm-442 532c-30,0 -22,-42 -22,-70l-136 0c-13,0 -23,-10 -23,-23l0 -139c0,-13 10,-23 23,-23l136 0c0,-28 -6,-59 13,-68 8,-4 18,-2 24,4l159 139c10,9 10,26 0,34l-159 140c-4,4 -9,6 -15,6zm-135 -115l135 0c25,0 23,25 23,42l101 -90 -101 -89c0,17 2,42 -23,42l-135 0 0 95zm135 462c-5,0 -10,-2 -15,-5l-158 -140c-10,-9 -10,-25 0,-34l158 -140c15,-12 38,-2 38,17l0 47 136 0c12,0 22,11 22,23l0 140c0,12 -10,23 -22,23l-136 0c0,28 8,69 -23,69zm-124 -162l102 89c0,-17 -2,-42 22,-42l136 0 0 -94 -136 0c-24,0 -22,-25 -22,-42l-102 89zm-317 -712c-23,0 -23,-22 -23,-39 -15,0 -32,-2 -32,-22 0,-31 43,-23 65,-23l0 -20c-77,0 -65,4 -65,-89 0,-20 17,-23 32,-23 0,-16 0,-38 23,-38 23,0 23,22 23,38 15,0 33,3 33,23 0,31 -44,23 -66,23l0 20c77,0 66,-4 66,89 0,20 -18,22 -33,22 0,17 0,39 -23,39zm0 72c-110,0 -199,-89 -199,-199 0,-110 89,-199 199,-199 110,0 199,89 199,199 0,110 -89,199 -199,199zm0 -353c-85,0 -153,69 -153,154 0,85 68,153 153,153 85,0 154,-68 154,-153 0,-85 -69,-154 -154,-154zm-257 177l-54 0c-29,0 -29,-46 0,-46l54 0c29,0 29,46 0,46zm568 0l-54 0c-29,0 -29,-46 0,-46l54 0c30,0 30,46 0,46zm-470 923l20 -33c-75,-60 -50,-138 -56,-169 -31,-86 -16,-143 1,-177 6,-11 16,-14 25,-15 -1,-9 0,-20 9,-29 58,-51 150,-57 214,-13 31,21 97,86 46,225 -6,33 22,116 -55,178l19 33 86 0c92,0 168,75 168,168l0 145c0,12 -11,22 -23,22l-684 0c-13,0 -23,-10 -23,-22l0 -145c0,-93 75,-168 168,-168l85 0zm60 -61c37,18 66,21 104,0 30,-17 50,-50 50,-87 0,-19 -3,-56 1,-73 10,-54 -25,-136 -82,-58 -5,7 -14,10 -23,8 -17,-3 -66,-7 -88,14 -15,14 -12,27 -12,51 -1,57 -6,112 50,145zm-1 50l-22 39c4,37 37,66 75,66 38,0 70,-29 75,-66l-23 -39c-32,13 -72,13 -105,0zm-190 301l0 -130c0,-29 45,-29 45,0l0 130 395 0 0 -130c0,-29 46,-29 46,0l0 130 76 0 0 -122c0,-68 -55,-122 -122,-122l-79 0c-28,125 -208,125 -236,0l-79 0c-68,0 -123,54 -123,122l0 122 77 0zm123 -581c34,-31 87,-29 113,-26 48,-57 96,-46 124,-16 -17,-86 -127,-111 -193,-61 7,28 -5,46 -35,46 -7,17 -10,36 -9,57zm1022 319c4,37 37,66 75,66 38,0 70,-29 75,-66l-22 -39c-33,13 -73,13 -106,0l-22 39zm23 -89c37,18 67,20 104,0 30,-17 50,-50 50,-87 0,-19 -2,-56 1,-73 10,-55 -25,-136 -82,-58 -5,7 -14,10 -23,8 -38,-7 -110,-5 -101,60 7,45 -18,109 51,150zm-191 351l0 -130c0,-29 45,-29 45,0l0 130 396 0 0 -130c0,-29 45,-29 45,0l0 130 76 0 0 -122c0,-68 -55,-122 -122,-122l-79 0c-28,125 -208,125 -236,0l-79 0c-68,0 -122,54 -122,122l0 122 76 0zm123 -581c34,-31 87,-29 113,-26 48,-57 97,-46 124,-16 -17,-86 -127,-111 -193,-61 7,28 -5,46 -35,46 -7,17 -10,36 -9,57z"/>
 </g>
</svg>
