<svg width="250" height="250" viewBox="0 0 250 250" fill="none" xmlns="http://www.w3.org/2000/svg">
<path fill-rule="evenodd" clip-rule="evenodd" d="M148.434 148.438C154.146 148.434 159.749 149.995 164.636 152.952C169.523 155.91 173.506 160.15 176.152 165.213C178.798 170.276 180.005 175.967 179.643 181.668C179.281 187.369 177.363 192.862 174.098 197.55C170.833 202.237 166.345 205.94 161.123 208.255C155.901 210.571 150.144 211.41 144.478 210.683C138.812 209.956 133.453 207.69 128.985 204.13C124.517 200.571 121.11 195.855 119.134 190.495C117.642 186.446 119.715 181.955 123.763 180.463C127.812 178.97 132.303 181.043 133.795 185.091C134.783 187.771 136.487 190.129 138.721 191.909C140.955 193.688 143.634 194.822 146.467 195.185C149.3 195.549 152.179 195.129 154.79 193.971C157.401 192.814 159.645 190.962 161.277 188.619C162.91 186.275 163.869 183.528 164.05 180.678C164.231 177.827 163.627 174.982 162.304 172.45C160.981 169.919 158.99 167.799 156.546 166.32C154.102 164.841 151.3 164.06 148.444 164.063L39.0625 164.063C34.7478 164.063 31.25 160.565 31.25 156.25C31.25 151.935 34.7478 148.438 39.0625 148.438H148.434Z" fill="white" fill-opacity="0.1"/>
<path fill-rule="evenodd" clip-rule="evenodd" d="M123.54 56.0287C120.929 54.8709 118.05 54.451 115.217 54.8147C112.384 55.1783 109.705 56.3115 107.471 58.0912C105.237 59.8708 103.533 62.2288 102.545 64.9089C101.053 68.9574 96.5615 71.0297 92.513 69.5375C88.4645 68.0453 86.3922 63.5537 87.8844 59.5052C89.86 54.1452 93.2671 49.4292 97.7352 45.8698C102.203 42.3105 107.562 40.044 113.228 39.3168C118.894 38.5895 124.651 39.4293 129.873 41.7448C135.095 44.0604 139.583 47.7631 142.848 52.4505C146.113 57.1379 148.031 62.6306 148.393 68.3317C148.755 74.0328 147.548 79.724 144.902 84.7868C142.256 89.8497 138.273 94.0904 133.386 97.048C128.5 100.005 122.898 101.566 117.188 101.563H23.4375C19.1228 101.563 15.625 98.0647 15.625 93.75C15.625 89.4353 19.1228 85.9375 23.4375 85.9375H117.188C120.044 85.9398 122.852 85.1591 125.296 83.6803C127.74 82.2015 129.731 80.0811 131.054 77.5497C132.377 75.0182 132.981 72.1726 132.8 69.3221C132.619 66.4716 131.66 63.7252 130.027 61.3815C128.395 59.0378 126.151 57.1865 123.54 56.0287Z" fill="white" fill-opacity="0.1"/>
<path fill-rule="evenodd" clip-rule="evenodd" d="M209.477 87.2787C206.866 86.1209 203.987 85.701 201.154 86.0646C198.321 86.4283 195.642 87.5615 193.408 89.3412C191.174 91.1208 189.471 93.4788 188.483 96.1589C186.991 100.207 182.499 102.28 178.451 100.787C174.402 99.2953 172.33 94.8037 173.822 90.7552C175.798 85.3951 179.205 80.6792 183.673 77.1198C188.141 73.5605 193.499 71.294 199.165 70.5668C204.831 69.8395 210.588 70.6793 215.811 72.9949C221.033 75.3104 225.52 79.0131 228.786 83.7005C232.051 88.3879 233.969 93.8806 234.331 99.5817C234.693 105.283 233.485 110.974 230.839 116.037C228.194 121.1 224.21 125.34 219.323 128.298C214.437 131.255 208.835 132.816 203.124 132.812C203.122 132.812 203.126 132.812 203.124 132.812H31.25C26.9353 132.812 23.4375 129.315 23.4375 125C23.4375 120.685 26.9353 117.188 31.25 117.188H203.125C205.981 117.19 208.79 116.409 211.233 114.93C213.677 113.451 215.669 111.331 216.992 108.8C218.315 106.268 218.918 103.423 218.737 100.572C218.556 97.7216 217.597 94.9752 215.965 92.6315C214.332 90.2878 212.088 88.4365 209.477 87.2787Z" fill="white" fill-opacity="0.1"/>
</svg>
